<svg width="188" height="95" viewBox="0 0 188 95" fill="none" xmlns="http://www.w3.org/2000/svg">
<path d="M1.79882 10.0398H6.89988L10.6083 26.7833H10.9525L15.2399 10.0398H20.075L24.4093 26.7833H24.7535L28.4463 10.0398H33.4847L27.4449 32.3331H22.1248L17.7748 16.1838H17.4306L13.0962 32.3331H7.82306L1.7832 10.0398H1.79882Z" fill="#1D1E1C"/>
<path d="M37.4902 3.30168C37.4902 1.64453 38.8672 0.300049 40.5258 0.300049C42.1844 0.300049 43.5458 1.64453 43.5458 3.30168C43.5458 4.95883 42.1844 6.30331 40.5258 6.30331C38.8672 6.30331 37.4902 4.97447 37.4902 3.30168ZM37.9753 10.0397H43.0607V32.3331H37.9753V10.0397Z" fill="#1D1E1C"/>
<path d="M49.3203 10.0398H54.4057V13.4479H54.7499C55.8139 11.056 57.9576 9.61768 61.181 9.61768C66.1569 9.61768 68.8795 12.6193 68.8795 17.9191V32.3331H63.7941V19.0916C63.7941 15.6209 62.3858 13.87 59.3033 13.87C56.2208 13.87 54.4057 15.9961 54.4057 19.3417V32.3331H49.3203V10.0398Z" fill="#1D1E1C"/>
<path d="M75.0918 1.40991H80.1772V19.1696H80.5214L88.752 10.0396H94.6354L85.6538 19.4666L95.2456 32.333H89.1275L81.961 22.6871L80.1772 24.5006V32.333H75.0918V1.40991Z" fill="#1D1E1C"/>
<path d="M122.19 15.8085C123.066 16.981 123.77 18.216 124.287 19.498C124.803 20.7799 125.069 22.0775 125.069 23.3594C125.069 25.7201 124.396 27.518 123.051 28.7999C121.705 30.0662 119.749 30.7072 117.167 30.7072C114.585 30.7072 112.739 30.0975 111.425 28.8937C110.11 27.6899 109.453 26.0171 109.453 23.8753C109.453 22.8435 109.657 21.7179 110.063 20.4985C110.47 19.2791 111.143 18.0128 112.082 16.6683C113.021 15.3395 114.288 13.9793 115.884 12.6036H119.248C120.344 13.5572 121.329 14.6203 122.206 15.7928L122.19 15.8085ZM114.272 9.1017L111.456 6.27204L114.272 3.45801L117.089 6.27204L114.272 9.1017ZM117.637 16.4025C116.322 17.4344 115.243 18.56 114.445 19.7481C113.647 20.9363 113.224 21.9993 113.224 22.9373C113.224 24.829 114.523 25.767 117.152 25.767C118.466 25.767 119.467 25.5325 120.156 25.0479C120.844 24.5632 121.173 23.8753 121.173 22.9842C121.173 22.015 120.751 20.9519 119.906 19.7794C119.061 18.6069 117.981 17.4812 116.682 16.4182H117.637V16.4025ZM120.046 9.1017L117.245 6.27204L120.046 3.45801L122.879 6.27204L120.046 9.1017Z" fill="#1D1E1C"/>
<path d="M137.023 20.4204C137.258 21.7493 137.555 22.7811 137.915 23.5159C138.275 24.2506 138.807 24.7509 139.511 25.0323C140.215 25.2981 141.201 25.4388 142.5 25.4388L142.015 30.5197C140.653 30.5197 139.527 30.2852 138.619 29.8318C137.727 29.3628 136.976 28.628 136.366 27.5806L137.039 25.6576C137.117 25.7202 137.227 25.939 137.367 26.3455C137.508 26.752 137.571 27.2054 137.571 27.69C137.43 30.0663 136.898 32.1299 135.975 33.8652C135.052 35.6005 133.831 36.945 132.313 37.883C130.795 38.821 129.106 39.29 127.228 39.29C126.727 39.29 126.242 39.2588 125.804 39.2119C125.35 39.165 124.943 39.1024 124.568 39.0243C124.192 38.9461 123.864 38.8523 123.598 38.7585V34.1466C124.098 34.2561 124.599 34.3342 125.115 34.3968C125.616 34.4437 126.18 34.4749 126.805 34.4749C128.433 34.4749 129.778 34.0841 130.827 33.3181C131.875 32.552 132.658 31.5671 133.158 30.3633C133.659 29.1595 133.925 27.9245 133.925 26.6426C133.925 26.2361 133.925 25.8609 133.878 25.5169C133.847 25.173 133.784 24.7196 133.69 24.1568C133.596 23.594 133.456 22.7967 133.252 21.7649C133.049 20.7331 132.783 19.3417 132.438 17.5908H136.46L136.992 20.3892L137.023 20.4204ZM134.066 14.1201L130.921 10.9309L134.066 7.8042L137.195 10.9465L134.066 14.1045V14.1201ZM141.483 30.3164C141.373 30.1757 141.326 29.9881 141.342 29.7536L141.733 26.2204C141.796 25.7045 142.046 25.4388 142.484 25.4388C142.734 25.4388 142.907 25.5169 143.016 25.6576C143.126 25.7983 143.173 25.9859 143.157 26.2204L142.766 29.7536C142.703 30.2695 142.437 30.5353 141.983 30.5353C141.749 30.5353 141.576 30.4571 141.467 30.3164H141.483Z" fill="#1D1E1C"/>
<path d="M143.032 25.6419C143.157 25.7827 143.189 25.9703 143.157 26.2048L142.766 29.7379C142.704 30.2538 142.453 30.5196 142.015 30.5196C141.78 30.5196 141.608 30.4414 141.499 30.3007C141.389 30.16 141.327 29.9724 141.342 29.7379L141.733 26.2048C141.796 25.6889 142.046 25.4231 142.516 25.4231C142.75 25.4231 142.923 25.5012 143.048 25.6419H143.032ZM158.335 15.1675C159.165 15.7929 159.869 16.6058 160.432 17.5907C161.011 18.5912 161.48 19.6543 161.84 20.7956C162.184 21.8117 162.513 22.6716 162.857 23.3595C163.202 24.0473 163.687 24.5632 164.313 24.9072C164.938 25.2511 165.815 25.4231 166.941 25.4231L166.456 30.504C164.985 30.504 163.796 30.2695 162.873 29.8005C161.95 29.3315 161.261 28.6905 160.776 27.8775C160.291 27.0646 159.978 26.1422 159.822 25.1104L161.12 24.5007C161.183 25.7827 160.964 26.8614 160.448 27.7681C159.931 28.6748 159.196 29.3471 158.226 29.8161C157.256 30.2851 156.145 30.5196 154.862 30.5196C153.688 30.5196 152.577 30.3476 151.544 29.9881C150.496 29.6285 149.588 29.1438 148.79 28.5341C147.992 27.9088 147.366 27.2209 146.913 26.4705L148.509 22.609C148.978 23.1875 149.573 23.7034 150.293 24.1724C150.997 24.6414 151.795 25.0322 152.671 25.3293C153.547 25.6263 154.455 25.767 155.394 25.767C156.035 25.767 156.598 25.6576 157.083 25.4231C157.569 25.2042 157.944 24.8446 158.179 24.3756C158.413 23.9066 158.476 23.3126 158.351 22.5934C158.288 22.015 158.101 21.4209 157.835 20.8425C157.569 20.264 157.177 19.7794 156.708 19.4042C156.238 19.029 155.66 18.8257 154.987 18.8257C153.86 18.8257 152.906 19.3729 152.155 20.4516C151.403 21.5303 150.637 22.8748 149.87 24.4538L148.916 26.0641C148.305 27.1428 147.711 28.0026 147.116 28.6436C146.537 29.2845 145.833 29.7536 145.051 30.0506C144.253 30.3476 143.236 30.4883 141.999 30.4883L142.484 25.4074C143.376 25.4074 144.112 25.2667 144.691 24.9697C145.27 24.6727 145.77 24.2193 146.193 23.6096C146.615 22.9843 147.1 22.2182 147.632 21.2802L148.696 19.2791C149.573 17.6689 150.512 16.4338 151.529 15.5427C152.546 14.6516 153.813 14.2139 155.331 14.2139C156.489 14.2139 157.475 14.5265 158.32 15.1519L158.335 15.1675ZM165.94 30.3007C165.83 30.16 165.783 29.9724 165.815 29.7379L166.206 26.2048C166.268 25.6889 166.519 25.4231 166.957 25.4231C167.192 25.4231 167.364 25.5012 167.489 25.6419C167.614 25.7827 167.661 25.9703 167.63 26.2048L167.239 29.7379C167.192 30.2538 166.926 30.5196 166.456 30.5196C166.222 30.5196 166.049 30.4414 165.94 30.3007Z" fill="#1D1E1C"/>
<path d="M178.161 8.69533L175.016 5.50609L178.161 2.37939L181.29 5.52172L178.161 8.67969V8.69533Z" fill="#1D1E1C"/>
<path d="M167.474 25.6421C167.599 25.7828 167.63 25.9704 167.599 26.2049L167.208 29.738C167.145 30.2539 166.895 30.5197 166.456 30.5197C166.222 30.5197 166.05 30.4415 165.94 30.3008C165.831 30.1601 165.768 29.9725 165.784 29.738L166.175 26.2049C166.237 25.689 166.488 25.4232 166.957 25.4232C167.192 25.4232 167.364 25.5014 167.489 25.6421H167.474ZM181.869 12.6506C182.871 12.9477 183.731 13.3072 184.42 13.7606L184.326 18.0285C183.606 17.7628 182.777 17.5126 181.853 17.3094C180.93 17.1062 179.976 16.9967 178.99 16.9967C178.004 16.9967 177.065 17.1687 176.252 17.497C175.438 17.8253 174.781 18.31 174.311 18.9197C173.842 19.5294 173.592 20.2641 173.592 21.1083C173.592 22.1558 173.952 23 174.671 23.6253C175.391 24.2507 176.33 24.704 177.488 24.9542C178.646 25.2043 179.866 25.2981 181.165 25.2356C182.166 25.2356 183.152 25.1887 184.138 25.1105C185.124 25.0324 186.125 24.9542 187.127 24.8447V29.7224C185.718 29.8944 184.326 30.0507 182.933 30.1601C181.541 30.2696 180.164 30.3477 178.802 30.3477C177.347 30.3946 175.954 30.4415 174.609 30.4728C173.263 30.5041 171.949 30.5197 170.619 30.5197C169.289 30.5197 167.896 30.5197 166.441 30.5197L166.926 25.4388H170.493C171.651 25.4388 173.044 25.4388 174.671 25.4232L174.155 27.0491C173.513 26.8146 172.856 26.4237 172.168 25.8766C171.479 25.3294 170.9 24.5946 170.431 23.6879C169.961 22.7811 169.727 21.7024 169.727 20.4361C169.727 18.7946 170.118 17.3407 170.916 16.1056C171.714 14.8706 172.778 13.9169 174.108 13.2291C175.438 12.5412 176.909 12.2129 178.521 12.2129C179.725 12.2129 180.821 12.3536 181.838 12.6506H181.869Z" fill="#1D1E1C"/>
<path d="M3.89549 93.8039H0.484375L9.79458 55.752H13.2057L3.89549 93.8039Z" fill="#1D1E1C"/>
<path d="M14.6133 64.46H18.1653L22.4996 82.0476H22.8281L27.7414 64.46H31.1056L36.0189 82.0476H36.3475L40.6818 64.46H44.2181L38.0531 86.4406H34.4855L29.5722 69.4314H29.2436L24.3459 86.4406H20.794L14.6289 64.46H14.6133Z" fill="#1D1E1C"/>
<path d="M47.5039 83.7048H51.9164V67.2271H47.5039V64.4756H59.8497V67.2271H55.4684V83.7048H59.8497V86.4563H47.5039V83.7048Z" fill="#1D1E1C"/>
<path d="M65.0449 64.4599H68.5969V67.7586H68.9255C70.0208 65.4292 72.0862 64.0691 75.3409 64.0691C80.2854 64.0691 83.0394 66.9926 83.0394 72.2141V87.9258C83.0394 92.0843 81.0991 94.0229 77.0621 94.0229C76.4831 94.0229 75.8729 93.976 75.513 93.9134V91.0369C75.779 91.0525 76.1702 91.0838 76.5614 91.0838C78.5173 91.0838 79.5031 90.0832 79.5031 88.0509V73.074C79.5031 69.1187 77.8758 67.2271 74.3551 67.2271C70.8345 67.2271 68.6125 69.5877 68.6125 73.4492V86.4562H65.0606V64.4756L65.0449 64.4599Z" fill="#1D1E1C"/>
<path d="M89.6426 55.7363H93.1945V74.0744H93.5231L103.037 64.4598H107.34L97.7479 73.6992L107.981 86.4405H103.506L95.26 76.1068L93.1945 78.1079V86.4561H89.6426V55.7363Z" fill="#1D1E1C"/>
<path d="M112.253 93.8039H108.842L118.152 55.752H121.563L112.253 93.8039Z" fill="#1D1E1C"/>
</svg>
