<svg width="169" height="169" viewBox="0 0 169 169" fill="none" xmlns="http://www.w3.org/2000/svg">
<g filter="url(#filter0_d_2620_3068)">
<rect x="9.41211" y="9.375" width="149.839" height="149.839" rx="14.9839" fill="black"/>
<path d="M101.681 77.1712C101.681 78.0183 101.286 78.8655 100.551 79.3737C99.6478 79.9385 98.5183 80.2209 97.6147 79.995C95.6945 79.995 93.7744 79.7126 91.9107 79.1478C91.6136 79.0488 91.273 78.9932 90.9652 78.9429C90.922 78.9359 90.8794 78.9289 90.8377 78.9219C90.4988 78.9219 90.3294 79.2043 90.3294 79.6561V80.7856C90.2729 81.068 90.3859 81.3504 90.4988 81.5763C90.6682 81.8022 90.8941 81.9151 91.1765 82.0281C93.2096 82.8188 95.3557 83.2141 97.5017 83.1576C99.6478 83.2706 101.737 82.6493 103.432 81.4633C104.9 80.3903 105.691 78.696 105.634 76.9453C105.634 75.7593 105.239 74.5733 104.505 73.6697C103.545 72.7096 102.302 71.919 101.003 71.4672L97.6712 70.2812C96.7111 69.9988 95.8075 69.547 95.0168 68.9823C94.565 68.5869 94.2826 67.9657 94.3391 67.3445C94.3391 65.5937 95.6945 64.7466 98.3489 64.7466C99.8737 64.7466 101.399 64.9725 102.867 65.3678C103.149 65.4808 103.488 65.5937 103.827 65.5937C104.222 65.5937 104.392 65.3114 104.392 64.8595V63.7865C104.392 63.5041 104.335 63.2218 104.166 62.9959C103.94 62.8264 103.714 62.657 103.432 62.6005C101.737 62.0358 99.9302 61.6969 98.123 61.6969C96.1463 61.584 94.1697 62.1487 92.5884 63.2782C91.233 64.2948 90.4423 65.8761 90.4988 67.5139C90.4988 70.1118 92.0236 72.0319 95.1298 73.105L98.6877 74.4039C99.5349 74.6298 100.382 75.0251 101.06 75.5899C101.455 75.9852 101.681 76.6064 101.681 77.1712Z" fill="white"/>
<path d="M83.3857 61.6407C82.9904 61.6972 82.708 62.0925 82.7645 62.4878L82.5951 77.9621C80.9008 79.2045 78.8112 79.8822 76.7217 79.9387C75.7051 80.0517 74.6885 79.6564 74.0108 78.8657C73.3896 77.9056 73.0508 76.7761 73.1637 75.5901V62.2619C73.1072 61.8666 72.7684 61.5842 72.3731 61.6407H69.8317C69.4363 61.6972 69.154 62.0925 69.2104 62.4878V76.8891C69.0975 78.5833 69.6623 80.2776 70.7353 81.5765C71.9213 82.706 73.559 83.3273 75.1968 83.2143C78.0771 83.1014 80.7879 82.1413 82.9904 80.3341L83.2728 81.8024C83.3292 82.0283 83.4422 82.2542 83.6116 82.4237C83.781 82.5366 84.007 82.5931 84.2329 82.5931H86.0965C86.4919 82.5366 86.7742 82.1413 86.7178 81.7459V62.2619C86.6613 61.8666 86.3224 61.5842 85.9271 61.6407H83.3857Z" fill="white"/>
<path d="M60.0615 82.0283C60.1179 82.4237 60.5133 82.706 60.9086 82.6496H63.3935C63.7888 82.5931 64.0712 82.1977 64.0147 81.8024V67.2882C64.1277 65.6504 63.5629 64.0126 62.4899 62.7137C61.3039 61.6407 59.7226 61.0195 58.1413 61.1324C55.1481 61.2454 52.3244 62.2619 50.0089 64.0691C49.0488 62.0925 47.3546 61.1324 44.8132 61.1324C42.0459 61.2454 39.3351 62.149 37.1325 63.8432L36.9067 62.5443C36.8502 62.3184 36.7372 62.0925 36.5678 61.9231C36.3984 61.8101 36.1725 61.7536 35.9466 61.7536H33.9135C33.5181 61.8666 33.2357 62.2054 33.2922 62.6008V82.0848C33.2922 82.4801 33.6876 82.7625 34.0829 82.706H36.7372C37.1325 82.6496 37.4149 82.2542 37.3584 81.8589V66.2717C39.1092 65.0857 41.1988 64.4645 43.3448 64.4645C44.3049 64.3515 45.2085 64.7468 45.8297 65.4245C46.4509 66.3281 46.6768 67.4012 46.6204 68.4742V82.0848C46.6768 82.4801 47.0722 82.7625 47.4675 82.706H50.1218C50.5172 82.6496 50.7995 82.2542 50.7431 81.8589V66.2717C52.5503 65.0857 54.6398 64.4644 56.7859 64.408C57.746 64.295 58.6496 64.6904 59.2708 65.3681C59.892 66.2717 60.1179 67.3447 60.0615 68.4177V82.0283Z" fill="white"/>
<path d="M120.305 72.3145C120.305 69.7731 120.813 67.9094 121.83 66.7799C122.846 65.6504 124.484 65.0292 126.574 64.9727C127.703 64.9727 128.889 65.1421 129.962 65.481C130.188 65.5375 130.414 65.5939 130.64 65.5939C130.979 65.5939 131.148 65.368 131.148 64.8033V63.7302C131.205 63.3914 131.092 63.109 130.979 62.8831C130.809 62.7137 130.583 62.5442 130.357 62.4878C129.002 61.9795 127.534 61.6971 126.065 61.6971C123.298 61.5277 120.644 62.5443 118.667 64.5209C116.916 66.4411 116.069 69.0389 116.069 72.5404C116.069 76.0419 116.916 78.6962 118.611 80.5034C120.305 82.3671 122.733 83.2707 125.952 83.2707C127.534 83.3272 129.115 83.0448 130.583 82.4236C130.866 82.3107 131.092 82.1977 131.261 81.9718C131.374 81.7459 131.43 81.4635 131.43 81.1812V80.1081C131.43 79.5998 131.261 79.3175 130.922 79.3175C130.735 79.3175 130.587 79.3562 130.413 79.4016C130.377 79.411 130.34 79.4207 130.301 79.4304C129.115 79.7693 127.873 79.9952 126.63 79.9952C124.879 80.1646 123.129 79.4869 121.83 78.2444C120.813 77.1149 120.305 75.3077 120.305 72.8228V72.3145Z" fill="white"/>
<path d="M112.172 63.4479C112.116 63.0525 111.777 62.7702 111.382 62.8266H108.727C108.389 62.8831 108.106 63.222 108.163 63.6173V82.593C108.219 82.9884 108.558 83.2707 108.953 83.2143H111.551C111.947 83.1578 112.229 82.8189 112.172 82.4236V63.4479Z" fill="white"/>
<path d="M112.059 58.7039C112.963 57.6309 112.963 56.0496 112.059 54.9765C110.986 54.0729 109.405 54.0729 108.332 54.9765C107.429 56.0496 107.429 57.6309 108.332 58.7039C109.405 59.6075 110.986 59.6075 112.059 58.7039Z" fill="white"/>
<path d="M33.1571 92.9998C46.9303 106.159 64.8267 113.353 83.3372 113.265C97.1982 113.265 113.34 108.615 124.569 99.9303C126.411 98.5267 124.832 96.3335 122.99 97.2108C110.796 102.562 97.8122 105.369 84.6531 105.457C66.9322 105.545 49.6498 100.632 34.2975 91.4207C33.0693 90.6312 32.1043 92.0348 33.1571 92.9998Z" fill="white"/>
<path d="M115.621 94.228C119.305 93.7894 127.464 92.8244 128.868 94.6667C130.231 96.4555 127.375 103.868 126.004 107.429C125.963 107.536 125.923 107.639 125.885 107.738C125.446 108.791 126.324 109.229 127.289 108.44C133.342 103.264 134.921 92.4735 133.693 90.8944C132.465 89.3153 121.85 87.9993 115.358 92.6489C114.305 93.3507 114.48 94.3158 115.621 94.228Z" fill="white"/>
</g>
<defs>
<filter id="filter0_d_2620_3068" x="-4" y="0" width="176.568" height="176.568" filterUnits="userSpaceOnUse" color-interpolation-filters="sRGB">
<feFlood flood-opacity="0" result="BackgroundImageFix"/>
<feColorMatrix in="SourceAlpha" type="matrix" values="0 0 0 0 0 0 0 0 0 0 0 0 0 0 0 0 0 0 127 0" result="hardAlpha"/>
<feOffset dy="4"/>
<feGaussianBlur stdDeviation="2"/>
<feComposite in2="hardAlpha" operator="out"/>
<feColorMatrix type="matrix" values="0 0 0 0 0 0 0 0 0 0 0 0 0 0 0 0 0 0 0.25 0"/>
<feBlend mode="normal" in2="BackgroundImageFix" result="effect1_dropShadow_2620_3068"/>
<feBlend mode="normal" in="SourceGraphic" in2="effect1_dropShadow_2620_3068" result="shape"/>
</filter>
</defs>
</svg>
