<svg width="164" height="163" viewBox="0 0 164 163" fill="none" xmlns="http://www.w3.org/2000/svg">
<g filter="url(#filter0_d_2620_3073)">
<path fill-rule="evenodd" clip-rule="evenodd" d="M153.615 54.6488C153.615 52.9301 153.615 51.2113 153.607 49.4925C153.599 48.0455 153.583 46.5985 153.543 45.1516C153.459 41.9978 153.271 38.8201 152.712 35.7023C152.144 32.5365 151.213 29.5906 149.75 26.7126C148.311 23.8866 146.432 21.3045 144.19 19.062C141.947 16.8196 139.361 14.941 136.535 13.502C133.661 12.039 130.715 11.1117 127.553 10.5401C124.436 9.98048 121.254 9.79261 118.1 9.70867C116.653 9.6687 115.206 9.65271 113.759 9.64471C112.04 9.63672 110.322 9.63672 108.603 9.63672H54.7289C53.0101 9.63672 51.2913 9.63672 49.5726 9.64471C48.1256 9.65271 46.6786 9.6687 45.2316 9.70867C42.0779 9.79661 38.8961 9.98048 35.7783 10.5441C32.6126 11.1117 29.6707 12.043 26.7967 13.506C23.9707 14.945 21.3845 16.8236 19.1421 19.066C16.8997 21.3085 15.021 23.8906 13.5821 26.7166C12.1191 29.5946 11.1878 32.5405 10.6202 35.7063C10.0606 38.8241 9.87269 42.0058 9.78875 45.1556C9.74877 46.6025 9.73279 48.0495 9.72479 49.4965C9.7168 51.2113 9.7168 52.9301 9.7168 54.6488V108.519C9.7168 110.237 9.7168 111.956 9.72479 113.675C9.73279 115.122 9.74877 116.569 9.78875 118.016C9.87269 121.17 10.0606 124.347 10.6202 127.465C11.1878 130.631 12.1191 133.577 13.5821 136.455C15.021 139.281 16.8997 141.863 19.1421 144.105C21.3845 146.348 23.9707 148.227 26.7967 149.666C29.6707 151.129 32.6166 152.056 35.7783 152.627C38.8961 153.187 42.0779 153.375 45.2316 153.459C46.6786 153.499 48.1256 153.515 49.5726 153.523C51.2913 153.535 53.0101 153.531 54.7289 153.531H108.599C110.318 153.531 112.036 153.531 113.755 153.523C115.202 153.515 116.649 153.499 118.096 153.459C121.25 153.375 124.432 153.187 127.549 152.627C130.715 152.06 133.657 151.129 136.531 149.666C139.357 148.227 141.943 146.348 144.186 144.105C146.428 141.863 148.307 139.281 149.746 136.455C151.209 133.577 152.14 130.631 152.708 127.465C153.267 124.347 153.455 121.166 153.539 118.016C153.579 116.569 153.595 115.122 153.603 113.675C153.615 111.956 153.611 110.237 153.611 108.519V54.6488H153.615Z" fill="black"/>
<path fill-rule="evenodd" clip-rule="evenodd" d="M111.427 31.6211C111.08 31.6531 107.99 32.2007 107.618 32.2766L64.8483 40.9065L64.8323 40.9105C63.7171 41.1464 62.8417 41.5421 62.1662 42.1097C61.3508 42.7932 60.8991 43.7605 60.7272 44.8877C60.6913 45.1275 60.6313 45.6152 60.6313 46.3347C60.6313 46.3347 60.6313 90.0317 60.6313 99.8648C60.6313 101.116 60.5314 102.331 59.684 103.366C58.8366 104.402 57.7893 104.713 56.5622 104.961C55.6308 105.149 54.6995 105.337 53.7682 105.525C50.2347 106.236 47.9363 106.72 45.8538 107.527C43.8632 108.299 42.3722 109.282 41.1851 110.529C38.8307 112.995 37.8754 116.341 38.2032 119.475C38.483 122.149 39.6861 124.707 41.7527 126.598C43.1477 127.877 44.8904 128.848 46.945 129.26C49.0755 129.688 51.3459 129.54 54.6635 128.868C56.4303 128.512 58.0851 127.957 59.66 127.026C61.2189 126.106 62.5539 124.879 63.5972 123.384C64.6445 121.885 65.32 120.218 65.6917 118.448C66.0754 116.621 66.1674 114.97 66.1674 113.147V66.7202C66.1674 64.234 66.8709 63.5785 68.8775 63.0908C68.8775 63.0908 104.428 55.9199 106.087 55.5961C108.401 55.1524 109.493 55.812 109.493 58.2382V89.9318C109.493 91.1869 109.481 92.458 108.625 93.4973C107.778 94.5325 106.731 94.8443 105.504 95.0921C104.572 95.28 103.641 95.4679 102.709 95.6557C99.176 96.3672 96.8776 96.8509 94.7951 97.6583C92.8045 98.4298 91.3136 99.4131 90.1264 100.66C87.7721 103.126 86.7328 106.472 87.0606 109.606C87.3404 112.28 88.6275 114.838 90.694 116.729C92.089 118.008 93.8318 118.951 95.8863 119.367C98.0168 119.795 100.287 119.643 103.605 118.975C105.372 118.619 107.026 118.088 108.601 117.157C110.16 116.237 111.495 115.01 112.539 113.515C113.586 112.016 114.261 110.349 114.633 108.579C115.017 106.752 115.033 105.101 115.033 103.278V35.4024C115.041 32.9402 113.742 31.4212 111.427 31.6211Z" fill="white"/>
</g>
<defs>
<filter id="filter0_d_2620_3073" x="-3.26172" y="0.626953" width="170.336" height="170.336" filterUnits="userSpaceOnUse" color-interpolation-filters="sRGB">
<feFlood flood-opacity="0" result="BackgroundImageFix"/>
<feColorMatrix in="SourceAlpha" type="matrix" values="0 0 0 0 0 0 0 0 0 0 0 0 0 0 0 0 0 0 127 0" result="hardAlpha"/>
<feOffset dy="4"/>
<feGaussianBlur stdDeviation="2"/>
<feComposite in2="hardAlpha" operator="out"/>
<feColorMatrix type="matrix" values="0 0 0 0 0 0 0 0 0 0 0 0 0 0 0 0 0 0 0.25 0"/>
<feBlend mode="normal" in2="BackgroundImageFix" result="effect1_dropShadow_2620_3073"/>
<feBlend mode="normal" in="SourceGraphic" in2="effect1_dropShadow_2620_3073" result="shape"/>
</filter>
</defs>
</svg>
