<svg width="104" height="42" viewBox="0 0 104 42" fill="none" xmlns="http://www.w3.org/2000/svg">
<path d="M3.16406 18.2855C1.6325 18.2855 0.390931 19.527 0.390931 21.0586C0.390931 22.5902 1.6325 23.8317 3.16406 23.8317L3.16406 18.2855ZM103.109 23.0195C104.192 21.9365 104.192 20.1807 103.109 19.0977L85.4608 1.4496C84.3779 0.366624 82.622 0.366624 81.539 1.4496C80.4561 2.53257 80.4561 4.28842 81.539 5.3714L97.2262 21.0586L81.539 36.7458C80.4561 37.8288 80.4561 39.5846 81.539 40.6676C82.622 41.7506 84.3779 41.7506 85.4608 40.6676L103.109 23.0195ZM3.16406 23.8317L101.148 23.8317L101.148 18.2855L3.16406 18.2855L3.16406 23.8317Z" fill="black"/>
</svg>
