<svg width="168" height="42" viewBox="0 0 168 42" fill="none" xmlns="http://www.w3.org/2000/svg">
<path d="M3 18.3714C1.46844 18.3714 0.226869 19.613 0.226868 21.1445C0.226868 22.6761 1.46844 23.9177 3 23.9177L3 18.3714ZM166.961 23.1054C168.044 22.0225 168.044 20.2666 166.961 19.1836L149.313 1.53554C148.23 0.452567 146.474 0.452567 145.391 1.53554C144.308 2.61852 144.308 4.37437 145.391 5.45734L161.078 21.1445L145.391 36.8317C144.308 37.9147 144.308 39.6706 145.391 40.7535C146.474 41.8365 148.23 41.8365 149.313 40.7535L166.961 23.1054ZM3 23.9177L165 23.9177L165 18.3714L3 18.3714L3 23.9177Z" fill="black"/>
</svg>
