<svg width="57" height="23" viewBox="0 0 57 23" fill="none" xmlns="http://www.w3.org/2000/svg">
<path d="M2 9.64453C1.17157 9.64453 0.5 10.3161 0.5 11.1445C0.5 11.973 1.17157 12.6445 2 12.6445L2 9.64453ZM56.0607 12.2052C56.6464 11.6194 56.6464 10.6697 56.0607 10.0839L46.5147 0.537933C45.9289 -0.0478534 44.9792 -0.0478535 44.3934 0.537933C43.8076 1.12372 43.8076 2.07347 44.3934 2.65925L52.8787 11.1445L44.3934 19.6298C43.8076 20.2156 43.8076 21.1653 44.3934 21.7511C44.9792 22.3369 45.9289 22.3369 46.5147 21.7511L56.0607 12.2052ZM2 12.6445L55 12.6445L55 9.64454L2 9.64453L2 12.6445Z" fill="black"/>
</svg>
