<svg width="10" height="8" viewBox="0 0 10 8" fill="none" xmlns="http://www.w3.org/2000/svg">
<path d="M9.37934 2.11368C9.37934 2.11368 9.2896 1.49947 9.0132 1.22977C8.6632 0.874817 8.27192 0.873077 8.09244 0.852198C6.80733 0.761719 4.87786 0.761719 4.87786 0.761719H4.87427C4.87427 0.761719 2.94481 0.761719 1.65969 0.852198C1.48021 0.873077 1.08893 0.874817 0.738937 1.22977C0.46253 1.49947 0.374582 2.11368 0.374582 2.11368C0.374582 2.11368 0.28125 2.83577 0.28125 3.55612V4.23123C0.28125 4.95158 0.372787 5.67368 0.372787 5.67368C0.372787 5.67368 0.46253 6.28789 0.737142 6.55758C1.08714 6.91254 1.54662 6.90036 1.75123 6.93864C2.48712 7.0065 4.87607 7.02738 4.87607 7.02738C4.87607 7.02738 6.80733 7.0239 8.09244 6.93516C8.27192 6.91428 8.6632 6.91254 9.0132 6.55758C9.2896 6.28789 9.37934 5.67368 9.37934 5.67368C9.37934 5.67368 9.47088 4.95332 9.47088 4.23123V3.55612C9.47088 2.83577 9.37934 2.11368 9.37934 2.11368ZM3.92659 5.05076V2.54694L6.40887 3.8032L3.92659 5.05076Z" fill="black"/>
</svg>
