<svg width="211" height="115" viewBox="0 0 211 115" fill="none" xmlns="http://www.w3.org/2000/svg">
<path d="M149.126 74.1034C146.205 74.7727 138.519 75.158 138.519 75.158L137.546 78.2C137.546 78.2 141.379 77.8755 144.177 78.1594C144.177 78.1594 145.09 78.058 145.191 79.1937C145.232 80.2483 145.11 81.3839 145.11 81.3839C145.11 81.3839 145.049 82.0735 144.076 82.2357C143.021 82.4182 135.802 82.6819 135.802 82.6819L134.626 86.6365C134.626 86.6365 134.2 87.5491 135.173 87.2854C136.086 87.0421 143.65 85.6225 144.644 85.8253C145.698 86.0889 146.875 87.4882 146.53 88.7861C146.124 90.368 138.58 95.1946 133.977 94.8498C133.977 94.8498 131.563 95.0121 129.515 91.747C127.609 88.6442 130.245 82.7427 130.245 82.7427C130.245 82.7427 129.049 79.9846 129.921 79.072C129.921 79.072 130.448 78.6056 131.949 78.4839L133.794 74.651C133.794 74.651 131.685 74.7929 130.428 73.2517C129.251 71.7712 129.17 71.102 130.063 70.6964C131.016 70.23 139.797 68.6278 145.84 68.8306C145.84 68.8306 147.95 68.6278 149.754 72.2782C149.734 72.2782 150.626 73.7587 149.126 74.1034ZM126.392 88.8267C125.621 90.6519 123.573 92.5988 121.038 91.382C118.523 90.1652 114.528 81.9923 114.528 81.9923C114.528 81.9923 113.007 78.9503 112.723 79.0112C112.723 79.0112 112.399 78.4231 112.196 81.749C111.993 85.0749 112.237 91.5442 110.918 92.5582C109.661 93.5722 108.14 93.1666 107.349 91.9701C106.639 90.7938 106.335 87.9952 106.72 83.0875C107.187 78.1797 108.322 72.9475 109.783 71.3048C111.243 69.6824 112.419 70.8586 112.865 71.2845C112.865 71.2845 114.812 73.0489 118.037 78.2405L118.604 79.1937C118.604 79.1937 121.525 84.1015 121.829 84.0812C121.829 84.0812 122.072 84.3043 122.275 84.142C122.579 84.0609 122.458 82.4791 122.458 82.4791C122.458 82.4791 121.849 77.1454 119.193 68.1006C119.193 68.1006 118.787 66.9649 119.071 65.9103C119.334 64.8355 120.409 65.3425 120.409 65.3425C120.409 65.3425 124.546 67.411 126.534 74.144C128.501 80.9378 127.163 87.0015 126.392 88.8267ZM106.071 71.5279C105.727 72.2174 105.524 73.2111 103.78 73.4748C103.78 73.4748 87.0893 74.6104 86.2984 75.7867C86.2984 75.7867 85.7103 76.4762 86.6229 76.679C87.5355 76.8615 91.3076 77.3685 93.1328 77.4699C95.0796 77.4902 101.65 77.551 104.003 80.4916C104.003 80.4916 105.402 81.8909 105.341 85.0546C105.28 88.2994 104.713 89.4351 103.455 90.6113C102.137 91.7065 90.8208 96.7764 83.5201 88.9889C83.5201 88.9889 80.1536 85.2371 84.676 82.3979C84.676 82.3979 87.9411 80.4308 96.2356 82.7427C96.2356 82.7427 98.7503 83.6553 98.6286 84.5679C98.4867 85.5413 96.5601 86.5756 93.7614 86.5148C91.0439 86.4337 89.0565 85.1357 89.4418 85.3385C89.8068 85.4805 86.5215 83.7567 85.5075 84.9329C84.4935 86.0078 84.7368 86.677 85.7306 87.3463C88.2656 88.7861 98.0608 88.2791 100.981 85.0343C100.981 85.0343 102.137 83.7161 100.373 82.6413C98.6084 81.6273 93.5586 81.0189 91.5915 80.9175C89.7054 80.8161 82.6886 80.9378 81.6746 79.072C81.6746 79.072 80.6606 77.8147 81.776 74.2454C82.9522 70.5139 91.125 69.074 94.6538 68.7495C94.6538 68.7495 104.368 68.4048 106.153 70.3922C106.132 70.3922 106.376 70.8586 106.071 71.5279ZM78.4906 93.41C77.3144 94.282 74.8199 93.8967 74.1101 92.9232C73.4003 92.0512 73.157 88.5833 73.2989 83.1483C73.4409 77.6524 73.5626 70.8384 74.7388 69.7635C75.9962 68.6684 76.7668 69.6216 77.2535 70.3719C77.7808 71.102 78.4095 71.9132 78.5515 73.637C78.6731 75.3608 79.0787 84.4057 79.0787 84.4057C79.0787 84.4057 79.606 92.5582 78.4906 93.41ZM81.0256 64.2474C77.5983 65.383 75.2458 64.9977 73.2584 64.146C72.3863 65.667 71.8793 66.1334 71.2101 66.2348C70.2367 66.3362 69.3646 64.7746 69.2024 64.2676C69.0401 63.8823 68.5737 63.2334 69.1415 61.6921C67.1947 59.948 67.0527 57.5955 67.3772 56.0137C67.8639 54.1885 71.1493 47.2527 81.1473 46.4415C81.1473 46.4415 86.0348 46.0765 86.8662 48.6926H87.0082C87.0082 48.6926 91.7537 48.7129 91.6523 52.9311C91.5915 57.1696 86.3795 62.4424 81.0256 64.2474ZM71.6968 54.8577C70.6828 56.4801 70.6423 57.4536 71.1087 58.1228C72.2647 56.3584 74.3738 53.5801 77.4766 51.471C75.0836 51.6738 73.0759 52.7081 71.6968 54.8577ZM85.5075 52.1402C82.3641 52.6067 77.4969 56.8249 75.185 60.2725C78.734 60.9214 85.0005 60.6781 87.7788 55.02C87.7586 55.02 89.097 51.5115 85.5075 52.1402ZM170.846 84.8113C168.96 88.0966 163.667 94.9512 156.609 93.3491C154.277 99.0072 152.33 104.706 151.215 113.264C151.215 113.264 150.971 114.927 149.592 114.339C148.233 113.852 145.962 111.581 145.516 108.437C145.029 104.3 146.875 97.3037 150.626 89.2931C149.531 87.5085 148.781 84.9532 149.43 81.3231C149.43 81.3231 150.383 74.5902 157.136 68.5062C157.136 68.5062 157.948 67.7964 158.414 68.0194C158.941 68.2425 158.698 70.4328 158.272 71.4873C157.846 72.5419 154.824 77.7741 154.824 77.7741C154.824 77.7741 152.938 81.3028 153.466 84.0812C157.015 78.6259 165.086 67.6138 170.095 71.0817C171.779 72.2782 172.549 74.8943 172.549 77.7133C172.529 80.2077 171.941 82.8441 170.846 84.8113ZM169.385 76.172C169.385 76.172 169.102 74.002 166.992 76.3951C165.167 78.4028 161.882 82.1951 159.225 87.326C162.004 87.0218 164.681 85.5008 165.492 84.7301C166.81 83.5539 169.872 80.3902 169.385 76.172ZM70.9262 78.9301C70.5409 83.8378 68.6548 92.0918 55.2903 96.168C46.4685 98.8247 38.1335 97.5471 33.5907 96.3911C33.4893 98.196 33.2865 98.9667 33.0026 99.2709C32.6173 99.6562 29.7376 101.319 28.1557 98.9667C27.4459 97.8513 27.0809 95.8233 26.8781 94.0184C16.657 89.3134 11.952 82.5399 11.7695 82.2357C11.5464 82.0126 9.21421 79.579 11.5464 76.5979C13.7366 73.9006 20.8955 71.2034 27.3445 70.1083C27.5676 64.5921 28.2166 60.4347 28.9872 58.5284C29.9201 56.3179 31.0963 58.3053 32.1103 59.806C32.9621 60.9214 33.4691 65.7278 33.5096 69.5607C37.7279 69.3579 40.2223 69.6621 44.9273 70.5139C51.0518 71.6293 55.1484 74.7524 54.7833 78.3014C54.5197 81.7895 51.3154 83.2294 50.0986 83.3308C48.821 83.4322 46.8336 82.5196 46.8336 82.5196C45.4748 81.8707 46.7322 81.3028 48.3749 80.593C50.1595 79.721 49.7539 78.8287 49.7539 78.8287C49.0846 76.8818 41.1349 75.523 33.2257 75.523C33.1851 79.8832 33.4082 87.1232 33.5096 91.3414C39.0461 92.396 43.1832 92.1932 43.1832 92.1932C43.1832 92.1932 63.382 91.6253 63.9904 78.7273C64.6191 65.8089 43.8524 53.4179 28.5005 49.4835C13.1688 45.4681 4.48898 48.2667 3.73862 48.6521C2.92742 49.0577 3.67778 49.1793 3.67778 49.1793C3.67778 49.1793 4.50926 49.301 5.94914 49.7877C7.47014 50.2745 6.2939 51.0654 6.2939 51.0654C3.67778 51.8969 0.737184 51.3696 0.169345 50.1731C-0.398495 48.9765 0.554664 47.9017 1.64978 46.3604C2.7449 44.738 3.94142 44.7989 3.94142 44.7989C22.9032 38.2281 46.0021 50.1122 46.0021 50.1122C67.6408 61.0837 71.3318 73.9412 70.9262 78.9301ZM13.6961 78.2608C11.5464 79.3154 13.0268 80.8364 13.0268 80.8364C17.0626 85.1763 22.0312 87.8938 26.7564 89.5771C27.304 82.0937 27.2228 79.4573 27.2837 75.6853C19.9018 76.1923 15.643 77.3685 13.6961 78.2608Z" fill="white"/>
<path d="M210.998 76.719V79.396C210.998 79.9841 210.532 80.4505 209.944 80.4505H197.188C197.188 81.1198 197.208 81.7079 197.208 82.2555C197.208 86.2101 197.046 89.4346 196.66 93.0647C196.6 93.6123 196.153 94.0179 195.626 94.0179H192.868C192.584 94.0179 192.32 93.8962 192.138 93.6934C191.955 93.4906 191.854 93.2067 191.895 92.9227C192.28 89.3129 192.462 86.1289 192.462 82.2555C192.462 81.6876 192.462 81.0995 192.442 80.4505H179.828C179.24 80.4505 178.773 79.9841 178.773 79.396V76.719C178.773 76.1309 179.24 75.6645 179.828 75.6645H192.26C191.996 71.3043 191.469 67.1063 190.617 62.8475C190.576 62.5839 190.637 62.3202 190.799 62.1174C190.962 61.9146 191.205 61.793 191.469 61.793H194.45C194.916 61.793 195.302 62.1174 195.403 62.5839C196.235 66.9846 196.762 71.2637 197.025 75.6645H209.944C210.512 75.6645 210.998 76.1512 210.998 76.719Z" fill="white"/>
<path d="M193.639 55.486C187.048 39.2823 175.914 25.4717 161.434 15.5345C146.61 5.37419 129.23 0 111.181 0C81.3285 0 53.6261 14.8247 37.0979 39.6676C36.9154 39.9313 36.8748 40.276 36.9762 40.5802C37.0776 40.9047 37.321 41.1278 37.6252 41.2292L39.9371 42.0201C40.079 42.0607 40.221 42.081 40.3427 42.081C40.7686 42.081 41.1742 41.8579 41.4175 41.5131C49.0022 30.3591 59.2639 21.0912 71.1074 14.6827C83.3362 8.07143 97.1874 4.56299 111.16 4.56299C128.054 4.56299 144.338 9.55187 158.291 18.9618C171.899 28.1486 182.465 40.9858 188.853 56.0539C189.035 56.5 189.482 56.8042 189.968 56.8042H192.726C193.051 56.8042 193.355 56.642 193.517 56.3783C193.72 56.1147 193.761 55.7902 193.639 55.486ZM40.3427 41.3914H40.3832C40.3832 41.3914 40.363 41.3914 40.3427 41.3914ZM189.401 56.4392C189.461 56.4797 189.522 56.5203 189.583 56.5406C189.522 56.5 189.461 56.4797 189.401 56.4392Z" fill="white"/>
</svg>
