<svg width="21" height="21" viewBox="0 0 21 21" fill="none" xmlns="http://www.w3.org/2000/svg">
<g clip-path="url(#clip0_3659_25810)">
<path d="M18.3659 3.18799H4.19922L11.1437 7.91021H20.5881V5.41021C20.5881 4.18299 19.5931 3.18799 18.3659 3.18799Z" fill="#DE3830"/>
<path d="M4.19922 17.6324H18.3659C19.5931 17.6324 20.5881 16.6374 20.5881 15.4102V12.9102H11.1437L4.19922 17.6324Z" fill="#002395"/>
<path d="M0.589844 6.52148V14.2993L6.42318 10.4104L0.589844 6.52148Z" fill="#141414"/>
<path d="M0.589844 5.41016V6.52127L6.42318 10.4102L0.589844 14.299V15.4102L8.08984 10.4102L0.589844 5.41016Z" fill="#FFB611"/>
<path d="M2.55707 3.20361C1.44984 3.33084 0.589844 4.26972 0.589844 5.41028L8.08984 10.4103L0.589844 15.4103C0.589844 16.5508 1.44984 17.4897 2.55707 17.6169L10.8676 11.7992H20.5898V9.02139H10.8676L2.55707 3.20361Z" fill="#007A4D"/>
<path d="M4.20248 3.18799H2.81359C2.72693 3.18799 2.64248 3.1941 2.55859 3.20354L10.8691 9.02132H20.5914V7.91021H11.1469L4.20248 3.18799ZM2.55859 17.6169C2.64248 17.6263 2.72693 17.6324 2.81359 17.6324H4.20248L11.1469 12.9102H20.5914V11.7991H10.8691L2.55859 17.6169Z" fill="#EEEEEE"/>
</g>
<defs>
<clipPath id="clip0_3659_25810">
<rect width="20" height="20" fill="white" transform="translate(0.589844 0.410156)"/>
</clipPath>
</defs>
</svg>
