<svg width="126" height="127" viewBox="0 0 126 127" fill="none" xmlns="http://www.w3.org/2000/svg">
<path d="M61.5 31.6445C61.5 48.7729 47.8372 62.6445 31 62.6445C14.1628 62.6445 0.5 48.7729 0.5 31.6445C0.5 14.5161 14.1628 0.644531 31 0.644531C47.8372 0.644531 61.5 14.5161 61.5 31.6445Z" stroke="black"/>
<path d="M61.5 94.6445C61.5 111.773 47.8372 125.645 31 125.645C14.1628 125.645 0.5 111.773 0.5 94.6445C0.5 77.5161 14.1628 63.6445 31 63.6445C47.8372 63.6445 61.5 77.5161 61.5 94.6445Z" stroke="black"/>
<path d="M125.5 31.6445C125.5 48.758 111.404 62.6445 94 62.6445C76.5956 62.6445 62.5 48.758 62.5 31.6445C62.5 14.5311 76.5956 0.644531 94 0.644531C111.404 0.644531 125.5 14.5311 125.5 31.6445Z" stroke="black"/>
<path d="M125.5 94.6445C125.5 111.758 111.404 125.645 94 125.645C76.5956 125.645 62.5 111.758 62.5 94.6445C62.5 77.5311 76.5956 63.6445 94 63.6445C111.404 63.6445 125.5 77.5311 125.5 94.6445Z" stroke="black"/>
</svg>
