<svg id="Layer_2" data-name="Layer 2" xmlns="http://www.w3.org/2000/svg" viewBox="0 0 43.16 35.99" width="2000" height="2000">
  <g id="Layer_1-2" data-name="Layer 1">
    <path d="M39.12,5.78c1.54,0,2.79-1.29,2.79-2.88S40.65,.03,39.12,.03s-2.79,1.29-2.79,2.88,1.25,2.88,2.79,2.88Z"/>
    <path d="M36.81,13.8h6.34V7.22h-6.94c-3.84,0-7,3.23-7,7.22s3.13,7.22,7,7.22h6.94v-6.6h-6.34c-.34,0-.63-.29-.63-.65,.03-.35,.28-.62,.63-.62Z"/>
    <path d="M3.93,5.78c1.54,0,2.79-1.29,2.79-2.88S5.46,.03,3.93,.03C2.36,0,1.11,1.29,1.11,2.88s1.25,2.91,2.82,2.91Z"/>
    <path d="M10.07,5.78c1.54,0,2.79-1.29,2.79-2.88S11.61,.03,10.07,.03s-2.79,1.29-2.79,2.88c-.03,1.58,1.22,2.88,2.79,2.88Z"/>
    <path d="M7,7.22C3.13,7.22,0,10.45,0,14.44v7.16H13.97v-7.16c0-3.99-3.13-7.22-6.97-7.22Zm4.3,7.19c0,.35-.28,.65-.63,.65H3.3c-.34,0-.63-.29-.63-.65s.28-.65,.63-.65h7.37c.34,.03,.63,.29,.63,.65Z"/>
    <path d="M21.85,21.63v7.13c0,3.96,3.13,7.22,7,7.22s7-3.23,7-7.22v-7.13h-14Zm11.27,7.13c0,.35-.28,.65-.63,.65h-7.34c-.34,0-.63-.29-.63-.65s.28-.65,.63-.65h7.37c.31,.03,.6,.29,.6,.65Z"/>
    <path d="M24.61,0c-1.54,0-2.79,1.29-2.79,2.88s1.25,2.88,2.79,2.88,2.79-1.29,2.79-2.88-1.25-2.88-2.79-2.88Z"/>
    <path d="M21.94,10.68L10.08,26.82l5.06,3.95L27,14.64l-5.06-3.95Z"/>
  </g>
</svg>
