<svg width="48" height="46" viewBox="0 0 48 46" fill="none" xmlns="http://www.w3.org/2000/svg">
<g clip-path="url(#clip0_466_6660)">
<path d="M45.9212 30.2645V17.1783C45.7614 17.2492 45.6212 17.2978 45.4938 17.3666C40.4909 20.043 35.4924 22.7234 30.4852 25.3896C30.1766 25.5536 30.1334 25.752 30.1334 26.0415C30.1399 30.4528 30.1485 34.8662 30.1334 39.2775C30.1248 42.1097 28.2125 44.3731 25.3442 44.9987C22.0118 45.7254 18.6363 43.6585 17.9866 40.4962C17.3327 37.3158 19.6226 34.2446 23.0068 33.7385C24.878 33.4571 26.5183 33.941 28.0895 35.0949C28.0895 34.8419 28.0895 34.6718 28.0895 34.4997C28.0895 28.2866 28.0981 22.0715 28.0766 15.8584C28.0744 15.1599 28.342 14.7571 28.983 14.4149C34.7111 11.3701 40.4219 8.299 46.1391 5.23597C47.2852 4.62255 48.0017 5.01935 48.0017 6.2725C48.0017 15.6195 48.0061 24.9645 48.0017 34.3115C48.0017 37.3644 46.0334 39.6986 43.0291 40.2472C39.7485 40.8465 36.5133 38.8301 35.8701 35.7893C35.2097 32.6635 37.2838 29.6633 40.5838 29.0094C42.3212 28.6652 43.9356 28.977 45.401 29.9264C45.5586 30.0277 45.714 30.1309 45.9233 30.2686L45.9212 30.2645ZM45.9535 7.57626C45.7766 7.65724 45.6794 7.69368 45.5909 7.74226C40.5643 10.4348 35.5377 13.1294 30.5046 15.8118C30.2089 15.9697 30.1291 16.1479 30.1312 16.4475C30.1442 18.5833 30.1377 20.7212 30.1399 22.857C30.1399 23.0007 30.155 23.1445 30.1658 23.357C31.4176 22.689 32.6111 22.0512 33.8046 21.4115C37.7111 19.3182 41.6197 17.2289 45.5176 15.1235C45.7032 15.0243 45.9341 14.7976 45.9363 14.6275C45.9643 12.3075 45.9557 9.98741 45.9557 7.57423L45.9535 7.57626ZM24.0276 35.5687C21.7722 35.5606 19.9312 37.2611 19.9183 39.3625C19.9053 41.4639 21.7399 43.207 23.9737 43.2151C26.2161 43.2232 28.0658 41.5145 28.0852 39.4111C28.1046 37.3138 26.2701 35.5747 24.0276 35.5666V35.5687ZM41.8291 38.4171C44.1147 38.4252 45.9514 36.7165 45.9471 34.5848C45.9449 32.5076 44.1363 30.8111 41.8981 30.7868C39.6471 30.7605 37.8039 32.4611 37.7931 34.5726C37.7823 36.7003 39.5758 38.411 41.8291 38.4191V38.4171Z" fill="black"/>
<path d="M10.2088 20.729V20.0873C10.2088 13.9248 10.2088 7.76229 10.2088 1.59979C10.2088 1.44795 10.2088 1.29612 10.2088 1.14428C10.2196 0.717117 10.4181 0.389153 10.839 0.223146C11.2577 0.057139 11.6548 0.144191 11.9786 0.447862C12.68 1.09974 13.3858 1.74757 14.0656 2.4197C15.6994 4.03118 17.5469 5.36733 19.6599 6.39374C21.5138 7.29261 22.4807 8.78262 22.457 10.7302C22.4311 12.7 21.3908 14.1414 19.511 15.0362C18.6476 15.4472 17.78 15.8521 16.9081 16.2469C16.2455 16.5465 15.6541 16.3865 15.3908 15.8582C15.134 15.346 15.3584 14.8439 15.993 14.5382C16.8239 14.1394 17.6548 13.7446 18.4922 13.362C19.6966 12.8113 20.4066 11.9287 20.4131 10.6654C20.4196 9.4264 19.7419 8.53766 18.5635 7.9789C16.4592 6.98286 14.6181 5.65481 12.98 4.07167C12.7815 3.87934 12.6196 3.65463 12.4404 3.44408C12.38 3.47243 12.3174 3.50077 12.257 3.52911C12.257 3.70119 12.257 3.87327 12.257 4.04738C12.257 11.0176 12.2635 17.9879 12.2527 24.9582C12.2484 27.8086 10.2606 30.0963 7.32966 30.6733C4.01239 31.3251 0.736132 29.2318 0.0972835 26.0514C-0.522141 22.9722 1.7721 19.9071 5.06779 19.3888C6.95628 19.0933 8.61815 19.5569 10.2066 20.727L10.2088 20.729ZM6.13613 21.2149C3.88074 21.2149 2.04836 22.9256 2.05052 25.029C2.05052 27.1345 3.898 28.8634 6.13182 28.8553C8.39584 28.8472 10.2023 27.1527 10.2088 25.0351C10.2131 22.9195 8.398 21.2169 6.13829 21.2169L6.13613 21.2149Z" fill="black"/>
</g>
<defs>
<clipPath id="clip0_466_6660">
<rect width="48" height="45" fill="white" transform="translate(0 0.144531)"/>
</clipPath>
</defs>
</svg>
