<svg width="126" height="118" viewBox="0 0 126 118" fill="none" xmlns="http://www.w3.org/2000/svg">
<path d="M61.5 85.6445C61.5 102.773 47.8372 116.645 31 116.645C14.1628 116.645 0.5 102.773 0.5 85.6445C0.5 68.5161 14.1628 54.6445 31 54.6445C47.8372 54.6445 61.5 68.5161 61.5 85.6445Z" stroke="black"/>
<path d="M93.5 31.6445C93.5 48.758 79.4044 62.6445 62 62.6445C44.5956 62.6445 30.5 48.758 30.5 31.6445C30.5 14.5311 44.5956 0.644531 62 0.644531C79.4044 0.644531 93.5 14.5311 93.5 31.6445Z" stroke="black"/>
<path d="M125.5 85.6445C125.5 102.758 111.404 116.645 94 116.645C76.5956 116.645 62.5 102.758 62.5 85.6445C62.5 68.5311 76.5956 54.6445 94 54.6445C111.404 54.6445 125.5 68.5311 125.5 85.6445Z" stroke="black"/>
</svg>
