<svg width="288" height="78" viewBox="0 0 288 78" fill="none" xmlns="http://www.w3.org/2000/svg">
<g clip-path="url(#clip0_2626_1342)">
<path d="M191.62 0V56.6365C198.572 56.9615 205.506 57.3544 212.421 57.818V69.8256C201.49 69.0934 190.513 68.5346 179.491 68.1535V0H191.62ZM288 0.00670974L272.207 36.7991L287.996 77.7421L287.978 77.7499C283.379 77.0905 278.774 76.468 274.155 75.8714L265.288 52.8917L256.337 73.7382C252.095 73.2675 247.847 72.8222 243.589 72.4049L258.986 36.5531L244.885 0.00670974H258.006L265.901 20.4585L274.679 0.00670974H288ZM137.865 67.5583L137.865 0.00649262H171.721V12.1221H149.993V27.8244H166.434V39.832H149.993V67.5555L137.865 67.5583ZM92.5763 12.1231L92.5759 0.00586106H130.09V12.1222H117.397V67.887C113.348 67.9935 109.304 68.1197 105.269 68.2727V12.1231H92.5763ZM51.1134 71.7635V0.00789371H84.8014V12.1235H63.2402V28.535C68.1936 28.4713 75.2366 28.399 79.6184 28.4097V40.4183C74.1335 40.3498 67.9423 40.4939 63.2402 40.541V58.7203C70.4063 58.1539 77.594 57.6584 84.8014 57.2401V69.2489C73.521 69.9018 62.2913 70.7429 51.1134 71.7635ZM27.3212 44.0044L27.3204 0.00592042H39.4492V72.8954C35.0154 73.3538 30.5901 73.8414 26.1724 74.3562L12.128 33.8138V76.0928C8.07735 76.6229 4.03495 77.1756 0 77.7526V0.00670974H11.5263L27.3212 44.0044ZM222.427 70.5499V70.55V0.00678833H234.556V71.5564C230.518 71.1953 226.476 70.8612 222.427 70.5499Z" fill="white"/>
</g>
<defs>
<clipPath id="clip0_2626_1342">
<rect width="288" height="78" fill="white"/>
</clipPath>
</defs>
</svg>
