<svg width="297" height="85" viewBox="0 0 297 85" fill="none" xmlns="http://www.w3.org/2000/svg">
<g clip-path="url(#clip0_2626_1321)">
<path d="M7.48138 37.7239C6.86733 33.1841 6.26267 28.6349 5.63456 24.0951C5.51738 23.2578 5.79862 22.8485 6.6189 22.5427C17.8123 18.4075 29.0291 17.7018 39.9319 23.159C48.5566 27.4776 52.5409 35.1318 53.333 44.5219C53.6143 47.862 53.5159 51.2398 53.4409 54.5941C53.4081 56.1419 53.7174 56.8381 55.4611 56.744C58.2595 56.5935 61.0766 56.617 63.8796 56.7393C65.5108 56.8099 65.5624 56.3912 65.1546 54.9187C61.9578 43.421 64.3811 33.2218 72.9215 24.8526C80.0791 17.8429 88.8773 15.4484 98.716 17.1043C99.8738 17.2972 100.511 17.1184 101.322 16.3234C110.031 7.78482 120.362 4.92451 132.001 8.52812C143.555 12.1035 150.394 20.2987 152.827 32.135C153.23 34.1062 153.3 36.1715 153.31 38.1944C153.352 49.9132 153.281 61.6367 153.38 73.3554C153.399 75.2984 152.771 75.6089 151.022 75.6042C101.435 75.5571 51.8425 75.5524 2.25498 75.6183C0.333166 75.6183 -0.0371353 75.0443 0.00505086 73.2802C0.122235 68.4393 0.11286 63.589 0.00505086 58.7481C-0.032448 57.1439 0.34254 56.6546 2.02061 56.6688C12.1547 56.7534 22.2934 56.6546 32.4275 56.7628C34.3493 56.7817 34.8133 56.1795 34.6727 54.4059C34.4571 51.6914 34.8414 48.9535 34.2743 46.2343C32.9337 39.7939 28.3495 35.701 21.7965 35.2588C19.3779 35.0941 16.9592 35.1083 14.5968 35.734C12.2812 36.3502 9.97974 37.0277 7.47669 37.7286L7.48138 37.7239ZM116.617 28.0234C121.337 34.1815 123.114 41.1206 122.781 48.6947C122.687 50.7976 122.837 52.9099 122.743 55.0128C122.682 56.3394 123.104 56.7864 124.45 56.7393C127.173 56.6452 129.901 56.6311 132.62 56.744C134.054 56.8052 134.48 56.3771 134.462 54.9234C134.382 49.151 134.495 43.3787 134.415 37.6063C134.279 28.2021 124.876 23.0319 116.622 28.0234H116.617ZM103.914 50.6471C103.881 50.6471 103.849 50.6471 103.816 50.6471C103.816 49.0099 103.896 47.3681 103.802 45.7403C103.469 40.0997 99.0019 35.7669 93.5084 35.6869C88.1179 35.6069 83.4446 39.6434 82.8915 44.8559C82.2868 50.5624 85.9477 55.4362 91.6193 56.5135C93.6302 56.8946 95.6552 56.7205 97.666 56.6876C99.6582 56.6593 102.292 57.5861 103.46 56.2736C104.458 55.1586 103.821 52.5806 103.91 50.6471H103.914Z" fill="white"/>
<path d="M162.554 37.856C162.554 25.9819 162.587 14.1079 162.516 2.23386C162.507 0.540259 162.835 -0.0477977 164.663 0.00865574C169.491 0.154494 174.333 0.173311 179.161 0.00865574C181.214 -0.061911 181.523 0.648461 181.514 2.50201C181.444 19.7673 181.5 37.0327 181.43 54.298C181.42 56.2033 181.856 56.7584 183.834 56.7584C219.847 56.6926 255.865 56.7302 291.878 56.6691C293.893 56.6691 294.615 57.0219 294.568 59.2518C294.409 67.1412 294.46 75.0305 294.545 82.9199C294.564 84.5147 294.207 85.0416 292.529 85.004C287.542 84.8863 282.55 84.8911 277.563 85.004C275.983 85.0369 275.552 84.5476 275.65 83.0375C275.772 81.1698 275.556 79.2786 275.716 77.4157C275.856 75.7785 275.186 75.5057 273.747 75.5433C270.166 75.6374 266.575 75.5715 262.99 75.5715C230.403 75.5715 197.821 75.5433 165.235 75.6327C162.901 75.6374 162.474 74.9741 162.493 72.7865C162.61 61.1477 162.549 49.5042 162.549 37.8654L162.554 37.856Z" fill="white"/>
<path d="M285.016 39.8703C278.359 39.8608 273.255 34.6436 273.297 27.8974C273.339 21.3771 278.542 16.2022 285.081 16.1739C291.583 16.1457 297.039 21.6029 297.001 28.0903C296.959 34.7095 291.695 39.8797 285.016 39.8703Z" fill="white"/>
<path d="M258.86 27.9491C258.892 34.6529 253.769 39.936 247.183 39.9878C240.485 40.0395 235.024 34.7282 234.996 28.1373C234.968 21.5275 240.405 16.0562 246.986 16.0703C253.605 16.0892 258.827 21.3111 258.86 27.9538V27.9491Z" fill="white"/>
<path d="M209.001 16.4593C215.783 16.4123 220.874 21.3802 220.874 28.037C220.874 34.5903 215.563 39.9769 209.062 40.0239C202.265 40.0757 196.963 34.9149 196.926 28.2157C196.889 21.1449 201.651 16.5111 209.001 16.4593Z" fill="white"/>
</g>
<defs>
<clipPath id="clip0_2626_1321">
<rect width="297" height="85" fill="white"/>
</clipPath>
</defs>
</svg>
