<svg width="166" height="79" viewBox="0 0 166 79" fill="none" xmlns="http://www.w3.org/2000/svg">
<g filter="url(#filter0_d_2620_3064)">
<path fill-rule="evenodd" clip-rule="evenodd" d="M161.425 49.5479C161.108 55.2252 158.608 60.56 154.449 64.4377C150.291 68.3153 144.794 70.4357 139.109 70.3557H85.4665C84.2858 70.344 83.1571 69.8684 82.324 69.0317C81.4908 68.195 81.0201 67.0642 81.0135 65.8834V8.12452C80.9758 7.13326 81.2387 6.15377 81.7675 5.31451C82.2963 4.47526 83.0664 3.81542 83.9768 3.42154C83.9768 3.42154 88.9105 2.24674e-05 99.3031 2.24674e-05C105.653 -0.00715503 111.885 1.7055 117.34 4.95609C121.596 7.46019 125.286 10.8202 128.176 14.8237C131.067 18.8272 133.095 23.387 134.133 28.2147C135.985 27.6933 137.9 27.4324 139.823 27.4394C142.708 27.4205 145.568 27.9832 148.231 29.094C150.893 30.2047 153.305 31.8408 155.322 33.9043C157.338 35.9679 158.919 38.4167 159.968 41.1044C161.017 43.7922 161.51 46.6639 161.425 49.5479ZM74.3178 11.7767C75.9357 31.3671 77.1114 49.234 74.3178 68.7603C74.2693 69.1856 74.0661 69.5782 73.7467 69.8632C73.4274 70.1482 73.0143 70.3057 72.5863 70.3057C72.1582 70.3057 71.7451 70.1482 71.4258 69.8632C71.1064 69.5782 70.9032 69.1856 70.8547 68.7603C68.2501 49.4006 69.381 31.1973 70.8547 11.7767C70.8164 11.4503 70.8714 11.1198 71.0135 10.8235C71.1556 10.5272 71.3789 10.2773 71.6573 10.1028C71.9358 9.92835 72.2581 9.83648 72.5867 9.8379C72.9153 9.83931 73.2367 9.93394 73.5137 10.1108C74.0776 10.4632 74.3947 11.1135 74.3178 11.7767ZM63.4606 68.7795C63.3997 69.2149 63.1834 69.6136 62.8516 69.9022C62.5199 70.1907 62.095 70.3496 61.6554 70.3496C61.2157 70.3496 60.7909 70.1907 60.4591 69.9022C60.1274 69.6136 59.9111 69.2149 59.8501 68.7795C57.9087 52.0752 57.9087 35.2023 59.8501 18.498C59.8964 18.0485 60.1078 17.6321 60.4433 17.3293C60.7788 17.0266 61.2147 16.859 61.6666 16.859C62.1185 16.859 62.5544 17.0266 62.8899 17.3293C63.2254 17.6321 63.4368 18.0485 63.4831 18.498C65.6391 35.1891 65.6295 52.0884 63.4606 68.7795ZM52.5874 16.7968C54.3494 34.747 55.1504 50.8294 52.5682 68.7379C52.5413 69.1818 52.3459 69.5988 52.0221 69.9036C51.6982 70.2084 51.2702 70.3782 50.8254 70.3782C50.3807 70.3782 49.9527 70.2084 49.6288 69.9036C49.3049 69.5988 49.1096 69.1818 49.0826 68.7379C46.5838 51.0601 47.4231 34.5163 49.0826 16.7968C49.1787 15.8998 49.9348 15.227 50.835 15.227C51.7321 15.227 52.4913 15.8998 52.5874 16.7968ZM41.695 68.802C41.6371 69.2316 41.4254 69.6258 41.099 69.9111C40.7726 70.1965 40.3537 70.3538 39.9202 70.3538C39.4866 70.3538 39.0678 70.1965 38.7414 69.9111C38.415 69.6258 38.2032 69.2316 38.1454 68.802C36.1399 53.2174 36.1399 37.44 38.1454 21.8554C38.1454 21.3766 38.3356 20.9175 38.6741 20.5789C39.0127 20.2404 39.4718 20.0502 39.9506 20.0502C40.4294 20.0502 40.8886 20.2404 41.2271 20.5789C41.5657 20.9175 41.7559 21.3766 41.7559 21.8554C43.8859 37.4333 43.8675 53.23 41.695 68.802ZM30.8154 33.5937C33.5673 45.7676 32.3275 56.5191 30.7129 68.9269C30.6475 69.3258 30.4425 69.6885 30.1344 69.9503C29.8263 70.212 29.4352 70.3557 29.031 70.3557C28.6267 70.3557 28.2356 70.212 27.9275 69.9503C27.6194 69.6885 27.4144 69.3258 27.349 68.9269C25.8818 56.6889 24.6644 45.6843 27.2465 33.5905C27.2742 33.1357 27.4745 32.7087 27.8064 32.3966C28.1383 32.0845 28.5769 31.911 29.0325 31.9114C29.4881 31.9118 29.9263 32.0861 30.2577 32.3988C30.5891 32.7115 30.7885 33.1389 30.8154 33.5937ZM19.9614 31.7452C22.4827 44.217 21.6594 54.7763 19.8973 67.2898C19.6891 69.1383 16.5207 69.1576 16.3509 67.2898C14.7555 54.9653 13.9994 44.0889 16.2868 31.7452C16.343 31.2975 16.5607 30.8858 16.899 30.5873C17.2373 30.2888 17.673 30.124 18.1241 30.124C18.5753 30.124 19.0109 30.2888 19.3492 30.5873C19.6875 30.8858 19.9052 31.2975 19.9614 31.7452ZM9.00492 37.7905C11.6479 46.0623 10.7445 52.7836 8.8992 61.2637C8.86207 61.6927 8.66542 62.0922 8.34809 62.3832C8.03076 62.6743 7.61583 62.8358 7.18524 62.8358C6.75465 62.8358 6.33972 62.6743 6.02239 62.3832C5.70506 62.0922 5.50841 61.6927 5.47129 61.2637C3.87907 52.9502 3.22873 46.0848 5.33032 37.7905C5.36882 37.3301 5.5789 36.901 5.91891 36.5882C6.25892 36.2755 6.70404 36.1019 7.16602 36.1019C7.628 36.1019 8.07312 36.2755 8.41313 36.5882C8.75314 36.901 8.96321 37.3301 9.00171 37.7905H9.00492Z" fill="black"/>
</g>
<defs>
<filter id="filter0_d_2620_3064" x="0" y="0" width="165.436" height="78.3789" filterUnits="userSpaceOnUse" color-interpolation-filters="sRGB">
<feFlood flood-opacity="0" result="BackgroundImageFix"/>
<feColorMatrix in="SourceAlpha" type="matrix" values="0 0 0 0 0 0 0 0 0 0 0 0 0 0 0 0 0 0 127 0" result="hardAlpha"/>
<feOffset dy="4"/>
<feGaussianBlur stdDeviation="2"/>
<feComposite in2="hardAlpha" operator="out"/>
<feColorMatrix type="matrix" values="0 0 0 0 0 0 0 0 0 0 0 0 0 0 0 0 0 0 0.25 0"/>
<feBlend mode="normal" in2="BackgroundImageFix" result="effect1_dropShadow_2620_3064"/>
<feBlend mode="normal" in="SourceGraphic" in2="effect1_dropShadow_2620_3064" result="shape"/>
</filter>
</defs>
</svg>
