<svg width="153" height="153" viewBox="0 0 153 153" fill="none" xmlns="http://www.w3.org/2000/svg">
<g filter="url(#filter0_d_2620_3066)">
<path d="M115.99 68.1521C94.1184 55.1631 58.0407 53.9688 37.1615 60.3065C33.8087 61.3234 30.2631 59.4307 29.247 56.0779C28.231 52.7235 30.1221 49.1803 33.4773 48.1611C57.4452 40.8851 97.2889 42.2909 122.468 57.2373C125.484 59.0272 126.473 62.922 124.686 65.9328C122.897 68.9485 118.999 69.9427 115.99 68.1521ZM115.274 87.3904C113.739 89.8802 110.484 90.6613 107.997 89.1324C89.7626 77.9243 61.9574 74.6777 40.3847 81.2253C37.5869 82.0711 34.6319 80.4936 33.7828 77.7015C32.9393 74.9038 34.5177 71.9545 37.3098 71.1038C61.9542 63.6261 92.5903 67.2478 113.534 80.1177C116.02 81.649 116.803 84.907 115.274 87.3904ZM106.971 105.866C105.752 107.866 103.149 108.492 101.156 107.274C85.222 97.5353 65.1668 95.3363 41.5482 100.731C39.2722 101.253 37.0043 99.8267 36.485 97.5507C35.964 95.2756 37.3843 93.0069 39.666 92.4876C65.512 86.5793 87.6835 89.1218 105.568 100.05C107.562 101.268 108.19 103.873 106.971 105.866ZM75.8531 8C38.3793 8 8 38.3782 8 75.8509C8 113.328 38.3793 143.704 75.8531 143.704C113.328 143.704 143.705 113.328 143.705 75.8509C143.705 38.3782 113.328 8 75.8531 8Z" fill="black"/>
</g>
<defs>
<filter id="filter0_d_2620_3066" x="-4" y="0" width="160.666" height="160.666" filterUnits="userSpaceOnUse" color-interpolation-filters="sRGB">
<feFlood flood-opacity="0" result="BackgroundImageFix"/>
<feColorMatrix in="SourceAlpha" type="matrix" values="0 0 0 0 0 0 0 0 0 0 0 0 0 0 0 0 0 0 127 0" result="hardAlpha"/>
<feOffset dy="4"/>
<feGaussianBlur stdDeviation="2"/>
<feComposite in2="hardAlpha" operator="out"/>
<feColorMatrix type="matrix" values="0 0 0 0 0 0 0 0 0 0 0 0 0 0 0 0 0 0 0.25 0"/>
<feBlend mode="normal" in2="BackgroundImageFix" result="effect1_dropShadow_2620_3066"/>
<feBlend mode="normal" in="SourceGraphic" in2="effect1_dropShadow_2620_3066" result="shape"/>
</filter>
</defs>
</svg>
