<svg width="24" height="103" viewBox="0 0 24 103" fill="none" xmlns="http://www.w3.org/2000/svg">
<path d="M13.5 2.14453C13.5 1.3161 12.8284 0.644531 12 0.644531C11.1716 0.644531 10.5 1.3161 10.5 2.14453L13.5 2.14453ZM10.9393 102.205C11.5251 102.791 12.4749 102.791 13.0607 102.205L22.6066 92.6592C23.1924 92.0735 23.1924 91.1237 22.6066 90.5379C22.0208 89.9521 21.0711 89.9521 20.4853 90.5379L12 99.0232L3.51472 90.5379C2.92894 89.9521 1.97919 89.9521 1.3934 90.5379C0.807615 91.1237 0.807615 92.0735 1.3934 92.6592L10.9393 102.205ZM10.5 2.14453L10.5 101.145L13.5 101.145L13.5 2.14453L10.5 2.14453Z" fill="black"/>
</svg>
