<svg width="44" height="20" viewBox="0 0 44 20" fill="none" xmlns="http://www.w3.org/2000/svg">
<path d="M2 8.84141C1.28031 8.84141 0.696883 9.42484 0.696883 10.1445C0.696883 10.8642 1.28031 11.4476 2 11.4476L2 8.84141ZM42.9214 11.066C43.4303 10.5571 43.4303 9.73199 42.9214 9.22309L34.6285 0.930106C34.1196 0.421207 33.2945 0.421207 32.7856 0.930106C32.2767 1.439 32.2767 2.26409 32.7856 2.77299L40.1571 10.1445L32.7856 17.5161C32.2767 18.025 32.2767 18.8501 32.7856 19.359C33.2945 19.8679 34.1196 19.8679 34.6285 19.359L42.9214 11.066ZM2 11.4476L42 11.4477L42 8.84142L2 8.84141L2 11.4476Z" fill="white"/>
</svg>
