<svg width="156" height="107" viewBox="0 0 156 107" fill="none" xmlns="http://www.w3.org/2000/svg">
<path d="M154.33 22.9333C154.33 22.9333 152.808 12.5144 148.119 7.93957C142.182 1.91848 135.545 1.88897 132.501 1.53479C110.701 -7.58302e-07 77.972 0 77.972 0H77.9111C77.9111 0 45.1818 -7.58302e-07 23.3825 1.53479C20.3379 1.88897 13.7007 1.91848 7.76371 7.93957C3.07504 12.5144 1.58319 22.9333 1.58319 22.9333C1.58319 22.9333 0 35.182 0 47.4013V58.8532C0 71.0724 1.55274 83.3212 1.55274 83.3212C1.55274 83.3212 3.07504 93.7401 7.73327 98.3149C13.6702 104.336 21.4644 104.129 24.9352 104.779C37.418 105.93 77.9416 106.284 77.9416 106.284C77.9416 106.284 110.701 106.225 132.501 104.72C135.545 104.366 142.182 104.336 148.119 98.3149C152.808 93.7401 154.33 83.3212 154.33 83.3212C154.33 83.3212 155.883 71.1019 155.883 58.8532V47.4013C155.883 35.182 154.33 22.9333 154.33 22.9333ZM61.8357 72.7548V30.2825L103.942 51.5924L61.8357 72.7548Z" fill="white"/>
</svg>
