<?xml version="1.0" encoding="UTF-8"?>
<svg id="Layer_2" data-name="Layer 2" xmlns="http://www.w3.org/2000/svg" viewBox="0 0 852.85 454.17">
  <defs>
    <style>
      .cls-1 {
        fill: #fff;
      }
    </style>
  </defs>
  <g id="Layer_1-2" data-name="Layer 1">
    <g>
      <path class="cls-1" d="M554.66,454.17H0V0c284.28,0,568.56,0,852.85,0V293.46h-31.09v3.48c0,23.39,0,46.78,0,70.16,0,1.36,0,2.72-.1,4.06-1.03,13.22-7.08,19.83-19.72,20.75-10.78,.78-19.1-3.59-22.1-14.45-.89-3.21-1.08-6.69-1.1-10.05-.09-23.56-.05-47.11-.05-70.67v-2.97h-30.96c-.05,.64-.12,1.06-.12,1.48,0,26.18-.29,52.37,.1,78.55,.25,17.2,8.33,30.32,23.96,37.74,18.24,8.66,37.1,8.61,55.61,.79,12.73-5.38,20.94-15.18,24.24-28.79,.53-2.2,.9-4.45,1.34-6.67v77.31h-167.41c.63-.35,1.26-.7,1.9-1.03,4.14-2.18,6.59-5.5,6.73-10.27,.15-4.98-2.08-8.71-6.5-10.88-37.04-18.19-75.3-21.06-114.61-8.62-7.13,2.26-14.03,5.39-20.82,8.56-6.06,2.83-8.29,9.73-5.62,15.47,1.66,3.55,4.67,5.41,8.14,6.76ZM59.91,2.74c.16,.97,.22,1.64,.38,2.28,10.24,39.15,20.51,78.3,30.7,117.47,.43,1.64,1.03,2.15,2.69,2.14,8.48-.08,16.96-.15,25.44,.03,2.53,.06,3.41-.79,4.02-3.15,5.55-21.52,11.24-43,16.9-64.5,.45-1.72,.99-3.41,1.71-5.85,.44,1.41,.67,2.03,.84,2.66,6.06,22.87,12.14,45.74,18.12,68.62,.42,1.61,.97,2.19,2.66,2.17,8.82-.08,17.64-.07,26.46,0,1.51,.01,2.17-.37,2.58-1.95,10.21-39.25,20.5-78.49,30.75-117.73,.18-.68,.19-1.4,.31-2.31-10.39,0-20.47-.03-30.55,.09-.56,0-1.44,1.18-1.6,1.93-4.61,22.01-9.15,44.03-13.7,66.04-.84,4.05-1.69,8.1-2.54,12.15-.7-.68-.93-1.31-1.09-1.95-6.12-25.04-12.27-50.06-18.31-75.12-.56-2.33-1.35-3.3-3.96-3.22-6.86,.22-13.74,.13-20.61,.03-1.83-.03-2.59,.46-3.05,2.36-5.15,21.36-10.42,42.68-15.67,64.02-1.15,4.66-2.33,9.3-3.5,13.95-.19,0-.38,0-.58-.01-5.47-26.7-10.95-53.4-16.43-80.16h-31.99ZM631.49,82.9c-.15,0-.3,0-.45,0-1.39-5.63-2.78-11.26-4.16-16.9-4.97-20.35-9.95-40.71-14.88-61.07-.39-1.6-.92-2.39-2.82-2.35-7.37,.14-14.75,.11-22.13,.01-1.56-.02-2.01,.65-2.33,1.95-5.59,22.9-11.21,45.79-16.82,68.69-.79,3.23-1.63,6.46-2.45,9.69-.19-.02-.38-.04-.58-.06-5.47-26.7-10.94-53.39-16.4-80.03h-32.19c10.65,40.76,21.24,81.25,31.78,121.59h30.77c6.41-24.28,12.78-48.41,19.15-72.53,.22,0,.44-.01,.65-.02,6.39,24.2,12.78,48.41,19.2,72.72,9.3,0,18.45-.11,27.6,.07,2.47,.05,3.26-.78,3.85-3.03,8.48-32.8,17.06-65.58,25.61-98.36,1.77-6.76,3.54-13.53,5.34-20.39-.56-.12-.87-.24-1.19-.24-9.75-.01-19.5,.02-29.25-.05-1.73-.01-1.79,1-2.04,2.23-5.22,25.42-10.47,50.83-15.72,76.24-.13,.62-.36,1.23-.54,1.84Zm-44.39,187.15h2.88c15.26,0,30.52,.08,45.78-.05,4.81-.04,9.69-.24,14.41-1.07,19.46-3.4,33.37-14.03,40.26-32.74,6.22-16.88,6.32-34.21,1.43-51.41-3.83-13.44-11.98-23.75-24.65-30.16-9.26-4.69-19.22-6.43-29.48-6.51-16.02-.13-32.05-.04-48.07-.03-.82,0-1.63,.08-2.57,.13v121.83Zm-31.21,148c4.79-.52,9.65-.69,14.36-1.62,18.5-3.64,32.35-13.63,39.87-31.16,8.12-18.94,8.31-38.4,1.51-57.72-5.84-16.61-17.49-27.7-34.35-33.05-11.1-3.52-22.48-4.04-33.91-2.05-22.16,3.86-37.06,16.43-44.18,37.82-4.2,12.63-4.52,25.64-2.41,38.66,2.45,15.16,9.04,28.12,21.59,37.52,11.09,8.3,23.86,11.29,37.51,11.6Zm124.52-.16c3.63-.29,7.29-.39,10.88-.91,18.73-2.71,33.52-11.71,41.81-28.96,10.14-21.09,10.21-42.92,1.17-64.43-6.61-15.74-18.92-25.48-35.34-29.89-10.28-2.76-20.74-3.06-31.24-1.27-19.84,3.38-34.45,13.93-42.19,32.6-7.74,18.65-7.62,37.86-.95,56.82,4.84,13.77,14.15,23.88,27.47,30.16,8.99,4.24,18.53,5.74,28.38,5.89ZM376.45,206.15c-.39-3.07-.72-9.29-2.04-15.28-4.22-19.07-14.8-33.2-33.32-40.57-10.93-4.35-22.38-5.18-33.98-3.81-21.05,2.48-36.91,12.73-45.43,32.38-7.99,18.45-8,37.63-1.58,56.54,5.95,17.52,18.24,28.92,36.06,34.22,10.25,3.05,20.72,3.37,31.2,1.87,17.29-2.48,30.99-10.72,40.07-25.98,6.66-11.19,8.74-23.5,9.01-39.37ZM454.49,50.32h-48.56V2.81h-30.74V124.39h31v-48.53h48.37v48.59h30.93V2.86h-31V50.32Zm-70.79,97.9c-.07,.71-.15,1.13-.15,1.54,0,26.01-.17,52.03,.05,78.04,.15,17.93,8.48,31.23,24.79,38.69,17.91,8.18,36.4,8.21,54.43,.47,16.35-7.02,25.3-20.02,25.6-37.85,.45-26.43,.12-52.87,.12-79.31,0-.49-.1-.97-.16-1.5h-30.87c0,1.21,0,2.22,0,3.23,0,24.49,.06,48.98-.03,73.46-.04,13.11-7.18,20.81-20.24,21.51-9.51,.51-17.01-2.77-20.62-11.9-1.27-3.21-1.85-6.9-1.87-10.37-.16-24.32-.08-48.64-.08-72.95,0-.98,0-1.96,0-3.06h-30.97Zm-17.87-109.54c.03-.61,.08-1.01,.07-1.42-.44-12.42-5.86-22.05-16.32-28.74-7.66-4.91-16.24-7.02-25.21-7.72-12.35-.97-24.34,.25-35.57,6.01-15.38,7.88-22.94,23.08-19.51,39.97,2.29,11.27,9.88,18.13,19.95,22.7,7.47,3.39,15.52,4.58,23.44,6.32,6.09,1.34,12.2,2.77,18.12,4.69,4.1,1.33,6.83,4.36,6.8,9.11-.04,5.4-3.33,8.48-7.77,10.6-4.9,2.33-10.18,2.56-15.44,2.05-8.98-.87-16.76-3.71-19.53-13.58h-28.47c-.09,.36-.19,.59-.19,.83,0,.59,0,1.19,.06,1.78,1.51,14.55,9.09,24.82,22.51,30.33,17.27,7.09,35.09,7.13,52.71,1.63,16.55-5.17,26.74-17.9,27.07-35.24,.25-13.54-5.22-23.46-17.43-29.6-9.06-4.56-18.91-6.14-28.7-8.02-6.3-1.21-12.72-2.06-18.36-5.46-4.46-2.69-5.88-7.68-3.59-12.35,1.33-2.72,3.55-4.5,6.26-5.67,4.89-2.11,9.99-2.43,15.19-1.59,7.86,1.26,13.96,4.59,15.36,13.39h28.55ZM222.61,223.87c-.09,.52-.16,.92-.23,1.32-1.16,5.96-3.56,11.22-8.12,15.42-9.73,8.96-32.26,9.77-40.7-10.34-3.98-9.5-4.32-19.42-3.33-29.44,.71-7.26,3.01-13.99,7.48-19.93,9.72-12.93,33.41-12.59,41.37,2.97,1.7,3.32,2.64,7.03,3.94,10.6h29.25c0-1.27,.11-2.37-.02-3.45-2.23-19.42-12.63-32.8-30.42-40.45-11.86-5.1-24.3-5.66-36.9-3.59-20.48,3.38-35.04,14.54-42.26,34.04-6.74,18.22-6.55,36.87-.38,55.26,4.68,13.97,13.79,24.48,27.36,30.45,15.89,7,32.41,7.67,48.82,2.16,15.84-5.32,26.92-15.93,32.05-32.16,1.32-4.16,2.16-8.43,1.84-12.87h-29.74Zm462.48-99.44h83.43v-24.83h-52.35v-24.51h49.22v-23.55h-49.21V27.63h52.33V2.8h-83.41V124.43ZM184.58,342.45h-49.11v-23.88h52.16v-24.82H104.44v121.61h83.17v-24.89h-52.1v-24.5h49.08v-23.51Zm207.47-48.9c.57,1.18,.94,1.99,1.35,2.78,13.2,25.16,26.42,50.32,39.57,75.51,.67,1.28,1.04,2.87,1.05,4.32,.08,12.2,.05,24.41,.05,36.61v2.59h31.01c0-1.08,0-1.99,0-2.91,0-11.86-.07-23.73,.07-35.59,.02-2.01,.57-4.2,1.49-5.98,12.68-24.29,25.46-48.52,38.21-72.77,.73-1.38,1.4-2.79,2.11-4.2-.48-.2-.62-.31-.77-.31-10.26-.02-20.52-.06-30.78,.03-.73,0-1.79,.85-2.14,1.58-5.83,12.11-11.57,24.27-17.34,36.41-2.02,4.26-4.08,8.5-6.29,13.11-.53-.98-.87-1.55-1.15-2.14-7.52-15.71-15.06-31.41-22.5-47.15-.7-1.47-1.49-1.93-3.06-1.91-6.44,.08-12.89,.03-19.33,.03-3.7,0-7.4,0-11.56,0Zm-293.09,25.03v-24.85H.95v25.04H34.54v96.53h31.13v-96.73h33.29Zm186.32,96.8h81.32v-24.82h-50.33v-96.87h-30.99v121.69ZM499.41,148.22v121.7h81.08v-24.87h-50.36v-96.83h-30.72ZM197.64,293.67v121.71h81.1v-24.87h-50.36v-96.85h-30.74ZM228.66,2.76V124.39h30.67V2.76h-30.67Z"/>
      <path d="M852.85,376.87c-.44,2.22-.8,4.47-1.34,6.67-3.29,13.61-11.5,23.41-24.24,28.79-18.51,7.82-37.37,7.87-55.61-.79-15.63-7.42-23.71-20.54-23.96-37.74-.38-26.18-.1-52.37-.1-78.55,0-.42,.07-.84,.12-1.48h30.96v2.97c0,23.56-.04,47.11,.05,70.67,.01,3.36,.21,6.84,1.1,10.05,2.99,10.85,11.32,15.23,22.1,14.45,12.64-.92,18.69-7.53,19.72-20.75,.11-1.35,.1-2.71,.1-4.06,0-23.39,0-46.78,0-70.16v-3.48h31.09v83.41Z"/>
      <path d="M554.66,454.17c-3.46-1.35-6.48-3.22-8.14-6.76-2.68-5.74-.44-12.64,5.62-15.47,6.8-3.17,13.69-6.3,20.82-8.56,39.31-12.44,77.57-9.58,114.61,8.62,4.42,2.17,6.65,5.9,6.5,10.88-.15,4.77-2.59,8.09-6.73,10.27-.64,.34-1.26,.69-1.9,1.03h-5.6c-2.6-1.2-5.19-2.43-7.8-3.6-23.36-10.42-47.71-13.59-72.94-9.55-13.66,2.19-26.65,6.54-38.84,13.15h-5.6Z"/>
      <path class="cls-1" d="M560.25,454.17c12.19-6.61,25.18-10.96,38.84-13.15,25.23-4.05,49.58-.87,72.94,9.55,2.62,1.17,5.2,2.4,7.8,3.6h-119.58Z"/>
      <path d="M59.91,2.74h31.99c5.49,26.76,10.96,53.46,16.43,80.16,.19,0,.38,0,.58,.01,1.17-4.65,2.36-9.29,3.5-13.95,5.25-21.33,10.52-42.66,15.67-64.02,.46-1.9,1.21-2.38,3.05-2.36,6.87,.1,13.74,.18,20.61-.03,2.61-.08,3.39,.89,3.96,3.22,6.04,25.06,12.18,50.09,18.31,75.12,.16,.65,.39,1.27,1.09,1.95,.85-4.05,1.7-8.1,2.54-12.15,4.55-22.02,9.09-44.04,13.7-66.04,.16-.75,1.04-1.92,1.6-1.93,10.08-.12,20.17-.09,30.55-.09-.12,.91-.13,1.63-.31,2.31-10.26,39.24-20.54,78.48-30.75,117.73-.41,1.57-1.07,1.96-2.58,1.95-8.82-.06-17.64-.07-26.46,0-1.69,.02-2.24-.56-2.66-2.17-5.99-22.89-12.06-45.75-18.12-68.62-.17-.64-.39-1.26-.84-2.66-.71,2.44-1.26,4.13-1.71,5.85-5.66,21.49-11.34,42.98-16.9,64.5-.61,2.36-1.48,3.21-4.02,3.15-8.48-.18-16.96-.11-25.44-.03-1.66,.02-2.26-.49-2.69-2.14-10.19-39.17-20.46-78.32-30.7-117.47-.17-.64-.22-1.31-.38-2.28Z"/>
      <path d="M631.49,82.9c.18-.61,.41-1.22,.54-1.84,5.25-25.41,10.5-50.82,15.72-76.24,.25-1.23,.31-2.24,2.04-2.23,9.75,.07,19.5,.03,29.25,.05,.32,0,.63,.12,1.19,.24-1.8,6.87-3.58,13.63-5.34,20.39-8.56,32.78-17.13,65.56-25.61,98.36-.58,2.26-1.38,3.08-3.85,3.03-9.15-.18-18.3-.07-27.6-.07-6.42-24.31-12.81-48.52-19.2-72.72-.22,0-.44,.01-.65,.02-6.37,24.12-12.74,48.25-19.15,72.53h-30.77c-10.55-40.34-21.13-80.83-31.78-121.59h32.19c5.46,26.63,10.93,53.33,16.4,80.03,.19,.02,.38,.04,.58,.06,.82-3.23,1.66-6.45,2.45-9.69,5.62-22.89,11.23-45.79,16.82-68.69,.32-1.3,.77-1.97,2.33-1.95,7.38,.09,14.76,.12,22.13-.01,1.91-.04,2.44,.75,2.82,2.35,4.93,20.36,9.91,40.71,14.88,61.07,1.38,5.64,2.77,11.27,4.16,16.9,.15,0,.3,0,.45,0Z"/>
      <path d="M587.1,270.05v-121.83c.94-.05,1.75-.13,2.57-.13,16.02,0,32.05-.1,48.07,.03,10.25,.08,20.21,1.82,29.48,6.51,12.67,6.41,20.82,16.72,24.65,30.16,4.89,17.19,4.79,34.53-1.43,51.41-6.89,18.71-20.8,29.34-40.26,32.74-4.72,.83-9.6,1.03-14.41,1.07-15.26,.13-30.52,.05-45.78,.05h-2.88Zm31.16-24.58c7.57-.42,15.04-.33,22.35-1.38,10-1.44,16.6-7.66,19.88-17.11,3.7-10.67,3.96-21.6,1.14-32.49-3.03-11.72-10.61-19.02-22.7-20.57-6.67-.86-13.51-.4-20.28-.51-.12,0-.25,.2-.39,.32v71.74Z"/>
      <path d="M555.89,418.05c-13.65-.32-26.41-3.3-37.51-11.6-12.55-9.39-19.14-22.36-21.59-37.52-2.11-13.02-1.78-26.04,2.41-38.66,7.11-21.39,22.01-33.96,44.18-37.82,11.43-1.99,22.8-1.48,33.91,2.05,16.86,5.35,28.51,16.45,34.35,33.05,6.8,19.32,6.61,38.78-1.51,57.72-7.52,17.53-21.37,27.52-39.87,31.16-4.71,.93-9.57,1.1-14.36,1.62Zm28.61-63.46c-.13-7.06-.88-14.01-3.83-20.56-4.78-10.63-12.66-16.75-24.62-16.79-11.95-.05-19.94,6-24.79,16.56-3.45,7.5-3.94,15.5-3.71,23.6,.23,7.9,1.76,15.45,6.03,22.24,10.3,16.41,33.62,16.75,44.34,.64,5.18-7.78,6.42-16.61,6.58-25.69Z"/>
      <path d="M680.41,417.9c-9.85-.14-19.39-1.65-28.38-5.89-13.31-6.27-22.63-16.39-27.47-30.16-6.67-18.95-6.78-38.17,.95-56.82,7.74-18.66,22.35-29.22,42.19-32.6,10.49-1.79,20.96-1.49,31.24,1.27,16.42,4.41,28.73,14.14,35.34,29.89,9.03,21.51,8.97,43.34-1.17,64.43-8.3,17.25-23.08,26.25-41.81,28.96-3.6,.52-7.25,.62-10.88,.91Zm-28.63-62.74c-.06,6.68,.88,13.94,4.08,20.75,4.78,10.18,12.71,15.97,24.09,16.1,11.25,.13,19.7-5.07,24.25-15.33,6.66-15.02,6.66-30.34-.53-45.17-4.59-9.45-12.64-14.3-23.34-14.29-10.78,.01-18.59,4.96-23.66,14.33-3.85,7.12-4.9,14.88-4.89,23.6Z"/>
      <path d="M376.45,206.15c-.27,15.87-2.35,28.18-9.01,39.37-9.08,15.26-22.78,23.5-40.07,25.98-10.48,1.5-20.94,1.18-31.2-1.87-17.83-5.3-30.11-16.7-36.06-34.22-6.43-18.91-6.42-38.09,1.58-56.54,8.52-19.65,24.37-29.9,45.43-32.38,11.61-1.37,23.05-.54,33.98,3.81,18.52,7.37,29.1,21.49,33.32,40.57,1.33,6,1.65,12.21,2.04,15.28Zm-31.54,2.88c-.47-4.02-.69-8.09-1.47-12.06-1.46-7.45-4.52-14.14-10.37-19.29-10.75-9.47-33.53-9.4-41.77,11.1-5.51,13.72-5.35,27.85,.39,41.53,4.36,10.37,12.57,16,23.93,16.23,10.9,.22,18.97-4.77,24.07-14.41,3.82-7.21,4.99-15.01,5.23-23.1Z"/>
      <path d="M454.49,50.32V2.86h31V124.46h-30.93v-48.59h-48.37v48.53h-31V2.81h30.74V50.32h48.56Z"/>
      <path d="M383.7,148.21h30.97c0,1.09,0,2.07,0,3.06,0,24.32-.07,48.64,.08,72.95,.02,3.47,.6,7.16,1.87,10.37,3.61,9.13,11.11,12.41,20.62,11.9,13.06-.7,20.2-8.4,20.24-21.51,.08-24.49,.03-48.97,.03-73.46,0-1.01,0-2.02,0-3.23h30.87c.06,.53,.16,1.02,.16,1.5,0,26.44,.33,52.88-.12,79.31-.3,17.83-9.26,30.84-25.6,37.85-18.03,7.74-36.53,7.71-54.43-.47-16.31-7.45-24.64-20.76-24.79-38.69-.22-26.01-.06-52.02-.05-78.04,0-.42,.08-.83,.15-1.54Z"/>
      <path d="M365.83,38.67h-28.55c-1.41-8.8-7.5-12.12-15.36-13.39-5.21-.84-10.31-.52-15.19,1.59-2.71,1.17-4.93,2.95-6.26,5.67-2.29,4.67-.87,9.66,3.59,12.35,5.64,3.4,12.06,4.25,18.36,5.46,9.79,1.88,19.65,3.46,28.7,8.02,12.2,6.14,17.68,16.06,17.43,29.6-.33,17.35-10.52,30.07-27.07,35.24-17.62,5.51-35.44,5.47-52.71-1.63-13.42-5.51-21-15.78-22.51-30.33-.06-.59-.07-1.18-.06-1.78,0-.23,.1-.47,.19-.83h28.47c2.78,9.87,10.56,12.71,19.53,13.58,5.25,.51,10.54,.28,15.44-2.05,4.45-2.12,7.74-5.2,7.77-10.6,.03-4.74-2.69-7.78-6.8-9.11-5.93-1.92-12.03-3.35-18.12-4.69-7.92-1.74-15.97-2.93-23.44-6.32-10.07-4.57-17.66-11.43-19.95-22.7-3.43-16.9,4.13-32.09,19.51-39.97,11.23-5.76,23.22-6.98,35.57-6.01,8.97,.7,17.55,2.82,25.21,7.72,10.46,6.7,15.88,16.33,16.32,28.74,.01,.4-.04,.81-.07,1.42Z"/>
      <path d="M222.61,223.87h29.74c.32,4.44-.52,8.71-1.84,12.87-5.13,16.22-16.21,26.84-32.05,32.16-16.4,5.51-32.93,4.84-48.82-2.16-13.57-5.97-22.68-16.48-27.36-30.45-6.17-18.39-6.36-37.04,.38-55.26,7.22-19.51,21.78-30.66,42.26-34.04,12.59-2.08,25.04-1.52,36.9,3.59,17.78,7.65,28.18,21.04,30.42,40.45,.12,1.08,.02,2.19,.02,3.45h-29.25c-1.3-3.57-2.24-7.28-3.94-10.6-7.96-15.56-31.65-15.9-41.37-2.97-4.46,5.93-6.76,12.67-7.48,19.93-.99,10.02-.66,19.95,3.33,29.44,8.44,20.11,30.97,19.3,40.7,10.34,4.56-4.2,6.97-9.47,8.12-15.42,.08-.4,.14-.8,.23-1.32Z"/>
      <path d="M685.09,124.43V2.8h83.41V27.63h-52.33v23.91h49.21v23.55h-49.22v24.51h52.35v24.83h-83.43Z"/>
      <path d="M184.58,342.45v23.51h-49.08v24.5h52.1v24.89H104.44v-121.61h83.19v24.82h-52.16v23.88h49.11Z"/>
      <path d="M392.05,293.54c4.15,0,7.86,0,11.56,0,6.44,0,12.89,.05,19.33-.03,1.56-.02,2.36,.44,3.06,1.91,7.44,15.74,14.98,31.44,22.5,47.15,.28,.59,.62,1.15,1.15,2.14,2.22-4.61,4.27-8.85,6.29-13.11,5.77-12.14,11.51-24.3,17.34-36.41,.35-.72,1.4-1.57,2.14-1.58,10.26-.09,20.52-.05,30.78-.03,.15,0,.29,.11,.77,.31-.71,1.41-1.39,2.82-2.11,4.2-12.75,24.25-25.54,48.48-38.21,72.77-.93,1.78-1.47,3.97-1.49,5.98-.14,11.86-.07,23.73-.07,35.59,0,.92,0,1.83,0,2.91h-31.01v-2.59c0-12.2,.04-24.41-.05-36.61,0-1.45-.38-3.04-1.05-4.32-13.15-25.19-26.37-50.34-39.57-75.51-.41-.79-.78-1.6-1.35-2.78Z"/>
      <path d="M98.96,318.57h-33.29v96.73h-31.13v-96.53H.95v-25.04H98.96v24.85Z"/>
      <path d="M285.29,415.37v-121.69h30.99v96.87h50.33v24.82h-81.32Z"/>
      <path d="M499.41,148.22h30.72v96.83h50.36v24.87h-81.08v-121.7Z"/>
      <path d="M197.64,293.67h30.74v96.85h50.36v24.87h-81.1v-121.71Z"/>
      <path d="M228.66,2.76h30.67V124.39h-30.67V2.76Z"/>
      <path class="cls-1" d="M618.26,245.47v-71.74c.14-.12,.27-.32,.39-.32,6.77,.12,13.61-.34,20.28,.51,12.09,1.55,19.66,8.85,22.7,20.57,2.82,10.89,2.56,21.83-1.14,32.49-3.28,9.45-9.88,15.67-19.88,17.11-7.31,1.05-14.78,.95-22.35,1.38Z"/>
      <path class="cls-1" d="M584.5,354.59c-.16,9.08-1.4,17.9-6.58,25.69-10.72,16.12-34.04,15.78-44.34-.64-4.27-6.8-5.8-14.35-6.03-22.24-.23-8.1,.26-16.11,3.71-23.6,4.85-10.56,12.84-16.61,24.79-16.56,11.96,.05,19.84,6.17,24.62,16.79,2.94,6.55,3.7,13.5,3.83,20.56Z"/>
      <path class="cls-1" d="M651.78,355.16c-.01-8.73,1.04-16.48,4.89-23.6,5.06-9.37,12.88-14.32,23.66-14.33,10.71-.01,18.76,4.84,23.34,14.29,7.2,14.83,7.2,30.16,.53,45.17-4.55,10.26-13,15.46-24.25,15.33-11.38-.13-19.3-5.92-24.09-16.1-3.2-6.81-4.14-14.07-4.08-20.75Z"/>
      <path class="cls-1" d="M344.91,209.03c-.24,8.09-1.41,15.89-5.23,23.1-5.1,9.64-13.17,14.63-24.07,14.41-11.35-.23-19.57-5.86-23.93-16.23-5.75-13.68-5.91-27.81-.39-41.53,8.24-20.5,31.02-20.56,41.77-11.1,5.85,5.15,8.91,11.84,10.37,19.29,.78,3.96,1,8.03,1.47,12.06Z"/>
    </g>
    <circle cx="546.44" cy="343.58" r="12.8"/>
    <circle cx="669.47" cy="343.27" r="12.8"/>
  </g>
</svg>