<svg width="2000" height="2000" viewBox="0 0 2000 2000" fill="none" xmlns="http://www.w3.org/2000/svg">
<path d="M1812.79 433.967C1884.15 433.967 1942.08 374.189 1942.08 300.51C1942.08 226.83 1883.69 167.516 1812.79 167.516C1741.89 167.516 1683.5 227.294 1683.5 300.973C1683.5 374.652 1741.43 434.43 1812.79 434.43V433.967Z" fill="#DF1780"/>
<path d="M1705.75 805.607H1999.54V500.695H1677.94C1500 500.695 1353.57 650.37 1353.57 835.264C1353.57 1020.16 1498.61 1169.83 1677.94 1169.83H1999.54V863.994H1705.75C1689.99 863.994 1676.55 850.556 1676.55 833.874C1677.94 817.655 1689.53 805.143 1705.75 805.143V805.607Z" fill="#DF1780"/>
<path d="M182.112 433.966C253.474 433.966 311.398 374.189 311.398 300.509C311.398 226.83 253.011 167.516 182.112 167.516C109.36 166.126 51.4355 225.903 51.4355 299.583C51.4355 373.262 109.36 434.43 182.112 434.43V433.966Z" fill="#DF1780"/>
<path d="M466.635 433.967C537.997 433.967 595.921 374.189 595.921 300.51C595.921 226.83 537.997 167.516 466.635 167.516C395.273 167.516 337.349 227.294 337.349 300.973C335.959 374.189 393.883 434.43 466.635 434.43V433.967Z" fill="#DF1780"/>
<path d="M324.374 500.695C145.042 500.695 0 650.37 0 835.264V1167.05H647.359V835.264C647.359 650.37 502.317 500.695 324.374 500.695ZM523.633 833.874C523.633 850.092 510.658 863.994 494.439 863.994H152.919C137.164 863.994 123.726 850.556 123.726 833.874C123.726 817.192 136.701 803.753 152.919 803.753H494.439C510.195 805.143 523.633 817.192 523.633 833.874Z" fill="#DF1780"/>
<path d="M1012.51 1168.44V1498.84C1012.51 1682.34 1157.55 1833.41 1336.89 1833.41C1516.22 1833.41 1661.26 1683.73 1661.26 1498.84V1168.44H1012.51ZM1534.75 1498.84C1534.75 1515.06 1521.78 1528.96 1505.56 1528.96H1165.43C1149.68 1528.96 1136.24 1515.52 1136.24 1498.84C1136.24 1482.16 1149.21 1468.72 1165.43 1468.72H1506.95C1521.32 1470.11 1534.75 1482.16 1534.75 1498.84Z" fill="#DF1780"/>
<path d="M1140.41 166.126C1069.05 166.126 1011.12 225.904 1011.12 299.583C1011.12 373.262 1069.05 433.04 1140.41 433.04C1211.77 433.04 1269.69 373.262 1269.69 299.583C1269.69 225.904 1211.77 166.126 1140.41 166.126Z" fill="#DF1780"/>
<path d="M1016.68 661.029L467.1 1408.94L701.576 1591.98L1251.16 844.532L1016.68 661.492V661.029Z" fill="#DF1780"/>
</svg>
